<?xml version="1.0" encoding="utf-8"?>
<svg viewBox="0 0 500 500" xmlns="http://www.w3.org/2000/svg">
  <path style="" d="M 181.244 116.411 C 181.244 116.411 180.988 113.032 186.148 111.626 C 213.949 104.05 363.878 63.868 368.833 60.711 C 372.468 58.395 382.533 54.65 388.359 44.933 C 393.3 36.69 397.657 26.577 397.516 18.966 C 397.433 14.486 393.715 9.008 388.039 8.847 C 376.042 8.508 240.589 47.802 140.159 75.811 C 111.503 83.803 111.358 108.494 111.661 116.437 C 111.963 124.38 112.108 149.071 140.764 157.063 C 241.194 185.072 376.647 224.366 388.644 224.027 C 394.32 223.866 398.038 218.388 398.121 213.908 C 398.262 206.297 393.905 196.184 388.964 187.941 C 383.138 178.224 373.073 174.479 369.438 172.163 C 364.388 168.945 209.792 127.398 186.1 121.2 C 181.252 119.93 181.244 116.411 181.244 116.411 Z"/>
  <path style="" d="M 228.79 271.912 C 185.131 259.77 142.775 247.801 139.991 246.474 C 136.061 244.601 126.586 240.905 120.76 231.188 C 115.819 222.945 111.462 212.832 111.603 205.221 C 111.686 200.741 115.404 195.263 121.08 195.102 C 128.21 194.901 178.945 208.697 240.018 225.805 C 247.427 227.881 254.989 230.005 262.643 232.159 C 268.675 233.829 274.785 235.525 280.87 237.217 C 324.529 249.359 366.885 261.328 369.669 262.655 C 373.599 264.528 383.074 268.224 388.9 277.941 C 393.841 286.184 398.198 296.297 398.057 303.908 C 397.974 308.388 394.256 313.866 388.58 314.027 C 381.45 314.228 330.715 300.432 269.642 283.324 C 262.233 281.248 254.671 279.124 247.017 276.97 C 240.985 275.3 234.875 273.604 228.79 271.912 Z"/>
  <path style="" d="M 181.233 392.766 C 181.233 392.766 180.977 389.387 186.137 387.981 C 213.938 380.405 363.867 340.223 368.822 337.066 C 372.457 334.75 382.522 331.005 388.348 321.288 C 393.289 313.045 397.646 302.932 397.505 295.321 C 397.422 290.841 393.704 285.363 388.028 285.202 C 376.031 284.863 240.578 324.157 140.148 352.166 C 111.492 360.158 111.347 384.849 111.65 392.792 C 111.952 400.735 112.097 425.426 140.753 433.418 C 241.183 461.427 376.636 500.721 388.633 500.382 C 394.309 500.221 398.027 494.743 398.11 490.263 C 398.251 482.652 393.894 472.539 388.953 464.296 C 383.127 454.579 373.062 450.834 369.427 448.518 C 364.377 445.3 209.781 403.753 186.089 397.555 C 181.241 396.285 181.233 392.766 181.233 392.766 Z" transform="matrix(-1, 0, 0, -1, 509.71286, 785.583984)"/>
</svg>