<svg width="255" height="255" viewBox="0 0 255 255" fill="none" xmlns="http://www.w3.org/2000/svg">
<path fill-rule="evenodd" clip-rule="evenodd" d="M43.1802 55.5391L85.3402 76.6191L127.5 55.5391L170 76.7891L127.84 97.8691L170 118.949L127.5 140.199V140.539L170 161.789L127.5 183.039V199.461L84.9998 178.378V161.789L111.355 148.612L85.0002 135.538V118.949L110.672 106.113L85.0002 93.3784V77.1291L43.1802 98.0391L85.0001 118.949L42.5 140.199V156.621L0 135.538V118.949L26.0107 105.944L0.68018 93.3784V76.7891L43.1802 55.5391ZM170 161.789V178.378L212.5 199.461V183.039L255 161.789L212.5 140.539V140.199L255 118.949L212.5 97.6991L170 118.949V135.538L196.355 148.612L170 161.789Z" fill="url(#paint0_linear_463_889)"/>
<defs>
<linearGradient id="paint0_linear_463_889" x1="39.0864" y1="-24.279" x2="143.531" y2="163.028" gradientUnits="userSpaceOnUse">
<stop stop-color="#87CBF8"/>
<stop offset="1" stop-color="#90A1EF"/>
</linearGradient>
</defs>
</svg>
