<svg width="241" height="256" viewBox="0 0 241 256" fill="none" xmlns="http://www.w3.org/2000/svg">
<path fill-rule="evenodd" clip-rule="evenodd" d="M167.057 121.827C182.417 99.3023 176.608 68.5912 154.084 53.2317C131.559 37.8722 100.848 43.6807 85.4887 66.2053C62.964 50.8458 32.2529 56.6543 16.8935 79.1789C1.53397 101.703 7.34245 132.415 29.867 147.774L29.8837 147.785L111.436 203.396L167.031 121.865C167.04 121.853 167.049 121.84 167.057 121.827Z" fill="#E3E779"/>
<path fill-rule="evenodd" clip-rule="evenodd" d="M86.2518 101.502C107.439 84.345 138.523 87.6121 155.681 108.799C176.868 91.6423 207.952 94.9094 225.11 116.097C242.267 137.284 239 168.368 217.812 185.526C217.806 185.53 217.8 185.535 217.794 185.54L141.086 247.657L78.9545 170.931C61.7974 149.744 65.0645 118.659 86.2518 101.502Z" fill="#FF7EB9"/>
<rect x="191.157" y="24.9815" width="6.91096" height="70.5201" rx="1.69248" transform="rotate(49.877 191.157 24.9815)" fill="#77709F"/>
<path d="M174.809 45.4353L176.054 46.9129L143.051 74.7237C142.342 75.321 141.283 75.2306 140.686 74.5218L140.522 74.3276L174.809 45.4353Z" fill="#57507F"/>
<circle cx="189.521" cy="30.5041" r="28.208" transform="rotate(94.877 189.521 30.5041)" fill="#461BA4"/>
<path fill-rule="evenodd" clip-rule="evenodd" d="M172.252 52.8118C175.928 55.1142 180.192 56.6004 184.811 56.9945C200.333 58.319 213.991 46.8092 215.315 31.2868C216.159 21.3951 211.791 12.2609 204.495 6.59288C212.434 11.5838 217.711 20.4215 217.711 30.4916C217.711 46.0704 205.082 58.6996 189.503 58.6996C183.005 58.6996 177.021 56.5029 172.252 52.8118Z" fill="#260084"/>
<circle cx="208.712" cy="31.4869" r="2.1156" transform="rotate(16.542 208.712 31.4869)" fill="#663BC4"/>
<path d="M209.048 37.7949C208.563 39.3822 206.211 38.9724 206.291 37.3143L206.575 31.4211C206.616 30.5737 207.39 29.9538 208.226 30.0995L209.668 30.3508C210.504 30.4965 211.023 31.3417 210.775 32.153L209.048 37.7949Z" fill="#663BC4"/>
<circle cx="206.976" cy="41.6272" r="1.0578" fill="#663BC4"/>
</svg>
