<svg width="944" height="944" viewBox="0 0 944 944" fill="none" xmlns="http://www.w3.org/2000/svg">
<circle cx="467.794" cy="318.812" r="318.812" fill="white"/>
<path fill-rule="evenodd" clip-rule="evenodd" d="M345.757 613.431L366.653 563.04L387.55 512.648C412.125 522.839 439.159 528.518 467.794 528.518C496.43 528.518 523.464 522.839 548.039 512.648L568.935 563.04L589.831 613.431C667.762 581.115 730.098 518.779 762.414 440.848L712.023 419.952L661.632 399.055C671.822 374.481 677.501 347.447 677.501 318.811C677.501 290.175 671.822 263.141 661.632 238.567L712.023 217.67L762.414 196.774C730.098 118.843 667.762 56.5074 589.831 24.1909L568.935 74.5822L548.039 124.973C523.464 114.783 496.43 109.104 467.794 109.104C439.159 109.104 412.125 114.783 387.55 124.973L366.653 74.5821L345.757 24.1909C267.826 56.5073 205.491 118.843 173.174 196.774L223.565 217.67L273.957 238.567C263.766 263.141 258.087 290.175 258.087 318.811C258.087 347.447 263.766 374.481 273.957 399.055L223.565 419.952L173.174 440.848C205.491 518.779 267.826 581.115 345.757 613.431ZM642.144 318.811C642.144 415.102 564.085 493.161 467.794 493.161C371.503 493.161 293.444 415.102 293.444 318.811C293.444 222.52 371.503 144.461 467.794 144.461C564.085 144.461 642.144 222.52 642.144 318.811ZM659.094 332.563C657.06 332.439 655.501 330.699 655.607 328.659C655.775 325.398 655.86 322.115 655.86 318.811C655.86 315.507 655.775 312.224 655.607 308.963C655.501 306.923 657.06 305.183 659.094 305.059L659.13 305.057C661.181 304.951 662.93 306.528 663.036 308.58C663.21 311.968 663.299 315.379 663.299 318.811C663.299 322.242 663.21 325.654 663.036 329.042C662.93 331.094 661.181 332.671 659.13 332.565L659.094 332.563ZM649.496 367.506C650.023 365.533 652.041 364.357 654.014 364.864L654.049 364.873C656.034 365.404 657.213 367.443 656.682 369.427C654.909 376.062 652.795 382.559 650.36 388.896C649.624 390.814 647.472 391.771 645.554 391.035L645.521 391.021C643.626 390.273 642.684 388.135 643.416 386.229C645.757 380.134 647.79 373.887 649.496 367.506ZM625.541 421.247C626.655 419.535 628.938 419.043 630.657 420.138L630.687 420.158C632.409 421.278 632.896 423.582 631.776 425.304C628.047 431.034 624.026 436.557 619.735 441.85C618.441 443.446 616.099 443.691 614.503 442.397L614.475 442.374C612.904 441.076 612.67 438.752 613.956 437.165C618.086 432.072 621.954 426.759 625.541 421.247ZM586.149 464.973C587.735 463.687 590.059 463.921 591.358 465.492L591.38 465.52C592.674 467.115 592.429 469.457 590.834 470.751C585.54 475.043 580.018 479.064 574.287 482.793C572.566 483.913 570.262 483.426 569.141 481.704L569.122 481.674C568.027 479.955 568.518 477.671 570.23 476.558C575.743 472.971 581.056 469.102 586.149 464.973ZM535.212 494.433C537.118 493.7 539.256 494.642 540.005 496.537L540.018 496.571C540.755 498.489 539.797 500.64 537.88 501.377C531.542 503.811 525.046 505.925 518.41 507.699C516.426 508.229 514.387 507.051 513.857 505.066L513.847 505.031C513.34 503.057 514.517 501.04 516.489 500.512C522.87 498.807 529.118 496.774 535.212 494.433ZM477.642 506.623C479.682 506.518 481.422 508.076 481.546 510.111L481.548 510.146C481.654 512.198 480.077 513.947 478.026 514.052C474.637 514.227 471.226 514.316 467.794 514.316C464.363 514.316 460.952 514.227 457.563 514.052C455.511 513.947 453.934 512.198 454.04 510.146L454.042 510.111C454.166 508.076 455.906 506.518 457.946 506.623C461.207 506.791 464.491 506.877 467.794 506.877C471.098 506.877 474.381 506.791 477.642 506.623ZM419.099 500.512C421.072 501.04 422.248 503.057 421.741 505.031L421.732 505.066C421.201 507.051 419.163 508.229 417.178 507.699C410.543 505.925 404.046 503.811 397.709 501.377C395.791 500.64 394.834 498.489 395.571 496.571L395.584 496.537C396.333 494.642 398.47 493.7 400.376 494.433C406.471 496.774 412.718 498.807 419.099 500.512ZM365.358 476.558C367.07 477.672 367.562 479.955 366.467 481.674L366.447 481.704C365.327 483.426 363.023 483.913 361.301 482.793C355.571 479.064 350.048 475.043 344.755 470.751C343.159 469.457 342.914 467.115 344.208 465.52L344.231 465.492C345.529 463.921 347.853 463.687 349.44 464.973C354.533 469.102 359.846 472.971 365.358 476.558ZM321.632 437.165C322.918 438.752 322.684 441.076 321.113 442.374L321.086 442.397C319.49 443.691 317.148 443.446 315.854 441.85C311.562 436.557 307.541 431.034 303.812 425.304C302.692 423.582 303.18 421.278 304.901 420.158L304.932 420.138C306.65 419.043 308.934 419.535 310.047 421.247C313.635 426.759 317.503 432.072 321.632 437.165ZM292.172 386.229C292.905 388.135 291.963 390.273 290.068 391.021L290.034 391.035C288.116 391.771 285.965 390.814 285.228 388.896C282.794 382.559 280.68 376.062 278.906 369.427C278.376 367.443 279.555 365.404 281.539 364.873L281.574 364.864C283.548 364.357 285.566 365.533 286.093 367.506C287.799 373.887 289.831 380.134 292.172 386.229ZM279.982 328.659C280.087 330.699 278.529 332.439 276.495 332.563L276.459 332.565C274.407 332.671 272.659 331.094 272.553 329.042C272.378 325.654 272.29 322.242 272.29 318.811C272.29 315.379 272.378 311.968 272.553 308.58C272.659 306.528 274.407 304.951 276.459 305.057L276.495 305.059C278.529 305.183 280.087 306.923 279.982 308.963C279.814 312.224 279.728 315.507 279.728 318.811C279.728 322.115 279.814 325.398 279.982 328.659ZM286.093 270.116C285.565 272.089 283.548 273.265 281.574 272.758L281.539 272.749C279.554 272.218 278.376 270.179 278.906 268.195C280.68 261.559 282.794 255.063 285.228 248.726C285.965 246.808 288.116 245.851 290.034 246.587L290.068 246.6C291.963 247.349 292.905 249.487 292.172 251.393C289.831 257.488 287.798 263.735 286.093 270.116ZM310.047 216.375C308.934 218.087 306.65 218.578 304.932 217.483L304.901 217.464C303.179 216.343 302.692 214.039 303.812 212.318C307.541 206.587 311.562 201.065 315.854 195.771C317.148 194.176 319.49 193.931 321.086 195.225L321.113 195.248C322.684 196.546 322.918 198.87 321.632 200.456C317.503 205.549 313.635 210.862 310.047 216.375ZM349.44 172.649C347.853 173.935 345.529 173.701 344.231 172.13L344.208 172.102C342.914 170.507 343.159 168.164 344.755 166.871C350.048 162.579 355.571 158.558 361.301 154.829C363.023 153.709 365.327 154.196 366.447 155.918L366.467 155.948C367.562 157.667 367.07 159.95 365.358 161.064C359.846 164.651 354.533 168.52 349.44 172.649ZM400.376 143.189C398.47 143.921 396.333 142.98 395.584 141.085L395.571 141.051C394.834 139.133 395.791 136.981 397.709 136.245C404.046 133.811 410.543 131.697 417.178 129.923C419.163 129.392 421.201 130.571 421.732 132.556L421.741 132.591C422.248 134.564 421.072 136.582 419.099 137.11C412.718 138.815 406.471 140.848 400.376 143.189ZM457.946 130.998C455.906 131.104 454.166 129.545 454.042 127.511L454.04 127.476C453.934 125.424 455.511 123.675 457.563 123.569C460.952 123.395 464.363 123.306 467.794 123.306C471.226 123.306 474.637 123.395 478.026 123.569C480.077 123.675 481.654 125.424 481.548 127.476L481.546 127.511C481.422 129.545 479.682 131.104 477.642 130.998C474.381 130.83 471.098 130.745 467.794 130.745C464.491 130.745 461.207 130.83 457.946 130.998ZM516.489 137.109C514.517 136.582 513.34 134.564 513.847 132.591L513.857 132.556C514.387 130.571 516.426 129.392 518.41 129.923C525.046 131.697 531.542 133.81 537.879 136.245C539.797 136.981 540.754 139.133 540.018 141.051L540.005 141.085C539.256 142.98 537.118 143.921 535.212 143.189C529.118 140.848 522.87 138.815 516.489 137.109ZM570.23 161.064C568.518 159.95 568.027 157.667 569.122 155.948L569.141 155.918C570.262 154.196 572.566 153.709 574.287 154.829C580.018 158.558 585.54 162.579 590.834 166.871C592.429 168.164 592.674 170.507 591.38 172.102L591.358 172.13C590.059 173.701 587.735 173.935 586.149 172.649C581.056 168.52 575.743 164.651 570.23 161.064ZM613.956 200.456C612.67 198.87 612.904 196.546 614.475 195.247L614.503 195.225C616.099 193.931 618.441 194.176 619.734 195.771C624.026 201.065 628.047 206.587 631.776 212.318C632.896 214.039 632.409 216.343 630.687 217.464L630.657 217.483C628.938 218.578 626.655 218.087 625.541 216.375C621.954 210.862 618.085 205.549 613.956 200.456ZM643.416 251.393C642.684 249.487 643.626 247.349 645.521 246.6L645.554 246.587C647.472 245.851 649.624 246.808 650.36 248.726C652.795 255.063 654.909 261.559 656.682 268.195C657.213 270.179 656.034 272.218 654.049 272.748L654.014 272.758C652.041 273.265 650.023 272.088 649.496 270.116C647.79 263.735 645.757 257.488 643.416 251.393Z" fill="#FF0000"/>
<g filter="url(#filter0_d_258_2384)">
<path fill-rule="evenodd" clip-rule="evenodd" d="M467.796 940.121C712.345 940.121 910.592 741.875 910.592 497.326C910.592 496.744 910.59 496.162 910.588 495.581H25.0034C25.0011 496.162 25 496.744 25 497.326C25 741.875 223.246 940.121 467.796 940.121Z" fill="#5DADEC"/>
</g>
<g filter="url(#filter1_d_258_2384)">
<path d="M25 363.091C25 338.636 44.8246 318.811 69.2794 318.811H866.309C890.764 318.811 910.588 338.636 910.588 363.091V495.929H25V363.091Z" fill="#1E83D3"/>
</g>
<path d="M25 407.37H910.588" stroke="#E9C921" stroke-width="35.4235" stroke-dasharray="141.69 141.69"/>
<path d="M910.579 407.37H918.19" stroke="#E4BB0C" stroke-width="35.4235"/>
<g clip-path="url(#clip0_258_2384)">
<path d="M363.701 629.242L411.933 656.681L431.243 604.659" stroke="#5AA4DE" stroke-width="105.702" stroke-linecap="round"/>
</g>
<g clip-path="url(#clip1_258_2384)">
<path d="M580.467 722.936L529.187 696.671L506.788 749.753" stroke="#5AA4DE" stroke-width="100.523" stroke-linecap="round"/>
<path fill-rule="evenodd" clip-rule="evenodd" d="M578.365 802.274C581.504 801.2 584.246 798.955 585.878 795.769C589.219 789.247 586.639 781.251 580.117 777.91L566.579 770.976L553.861 764.462L548.305 777.627L542.392 791.641C539.542 798.393 542.706 806.176 549.458 809.025C552.756 810.417 556.3 810.374 559.395 809.179L578.365 802.274Z" fill="#5AA4DE"/>
</g>
<defs>
<filter id="filter0_d_258_2384" x="25" y="495.581" width="893.202" height="448.346" filterUnits="userSpaceOnUse" color-interpolation-filters="sRGB">
<feFlood flood-opacity="0" result="BackgroundImageFix"/>
<feColorMatrix in="SourceAlpha" type="matrix" values="0 0 0 0 0 0 0 0 0 0 0 0 0 0 0 0 0 0 127 0" result="hardAlpha"/>
<feOffset dx="7.61052" dy="3.80526"/>
<feComposite in2="hardAlpha" operator="out"/>
<feColorMatrix type="matrix" values="0 0 0 0 0.345098 0 0 0 0 0.631373 0 0 0 0 0.858824 0 0 0 1 0"/>
<feBlend mode="normal" in2="BackgroundImageFix" result="effect1_dropShadow_258_2384"/>
<feBlend mode="normal" in="SourceGraphic" in2="effect1_dropShadow_258_2384" result="shape"/>
</filter>
<filter id="filter1_d_258_2384" x="25" y="318.811" width="893.199" height="180.923" filterUnits="userSpaceOnUse" color-interpolation-filters="sRGB">
<feFlood flood-opacity="0" result="BackgroundImageFix"/>
<feColorMatrix in="SourceAlpha" type="matrix" values="0 0 0 0 0 0 0 0 0 0 0 0 0 0 0 0 0 0 127 0" result="hardAlpha"/>
<feOffset dx="7.61052" dy="3.80526"/>
<feComposite in2="hardAlpha" operator="out"/>
<feColorMatrix type="matrix" values="0 0 0 0 0.0994444 0 0 0 0 0.460137 0 0 0 0 0.745833 0 0 0 1 0"/>
<feBlend mode="normal" in2="BackgroundImageFix" result="effect1_dropShadow_258_2384"/>
<feBlend mode="normal" in="SourceGraphic" in2="effect1_dropShadow_258_2384" result="shape"/>
</filter>
<clipPath id="clip0_258_2384">
<rect width="190.263" height="179.693" fill="white" transform="translate(290.001 599.824) rotate(-20)"/>
</clipPath>
<clipPath id="clip1_258_2384">
<rect width="179.071" height="190.263" fill="white" transform="translate(419.38 656.88) rotate(-20)"/>
</clipPath>
</defs>
</svg>