<svg width="240" height="240" viewBox="0 0 240 240" fill="none" xmlns="http://www.w3.org/2000/svg">
<g filter="url(#filter0_dif_11_3)">
<path d="M120 27.9998C124.418 27.9998 128 31.5816 128 35.9998V42.908C164.413 46.6422 193.358 75.5865 197.092 112H204C208.418 112 212 115.582 212 120C212 124.418 208.418 128 204 128H197.092C193.358 164.413 164.413 193.356 128 197.091V204C128 208.418 124.418 212 120 212C115.582 212 112 208.418 112 204V197.091C75.5866 193.356 46.6423 164.413 42.9082 128H36C31.5817 128 28 124.418 28 120C28.0001 115.582 31.5818 112 36 112H42.9082C46.6424 75.5865 75.5867 46.6422 112 42.908V35.9998C112 31.5816 115.582 27.9998 120 27.9998ZM120 58.4998C86.0345 58.4998 58.5001 86.0344 58.5 120C58.5 153.965 86.0345 181.5 120 181.5C153.966 181.5 181.5 153.965 181.5 120C181.5 86.0344 153.965 58.4998 120 58.4998ZM100 111.863C103.314 111.863 106 114.549 106 117.863V143.863C106 147.177 103.314 149.863 100 149.863C96.6864 149.863 94.0002 147.177 94 143.863V117.863C94 114.549 96.6863 111.863 100 111.863ZM116.639 88.9168C118.428 86.906 121.572 86.906 123.361 88.9168L130.652 97.1073C133.235 100.009 131.175 104.599 127.291 104.599H126V138.863C126 142.177 123.314 144.863 120 144.863C116.686 144.863 114 142.177 114 138.863V104.599H112.709C108.825 104.599 106.765 100.009 109.348 97.1073L116.639 88.9168ZM140 101.863C143.314 101.863 146 104.549 146 107.863V133.863C146 137.177 143.314 139.863 140 139.863C136.686 139.863 134 137.177 134 133.863V107.863C134 104.549 136.686 101.863 140 101.863Z" fill="url(#paint0_linear_11_3)"/>
</g>
<defs>
<filter id="filter0_dif_11_3" x="0" y="-0.000167847" width="240" height="240" filterUnits="userSpaceOnUse" color-interpolation-filters="sRGB">
<feFlood flood-opacity="0" result="BackgroundImageFix"/>
<feColorMatrix in="SourceAlpha" type="matrix" values="0 0 0 0 0 0 0 0 0 0 0 0 0 0 0 0 0 0 127 0" result="hardAlpha"/>
<feOffset/>
<feGaussianBlur stdDeviation="14"/>
<feComposite in2="hardAlpha" operator="out"/>
<feColorMatrix type="matrix" values="0 0 0 0 0.301961 0 0 0 0 0.301961 0 0 0 0 0.960784 0 0 0 0.5 0"/>
<feBlend mode="normal" in2="BackgroundImageFix" result="effect1_dropShadow_11_3"/>
<feBlend mode="normal" in="SourceGraphic" in2="effect1_dropShadow_11_3" result="shape"/>
<feColorMatrix in="SourceAlpha" type="matrix" values="0 0 0 0 0 0 0 0 0 0 0 0 0 0 0 0 0 0 127 0" result="hardAlpha"/>
<feOffset/>
<feGaussianBlur stdDeviation="3"/>
<feComposite in2="hardAlpha" operator="arithmetic" k2="-1" k3="1"/>
<feColorMatrix type="matrix" values="0 0 0 0 1 0 0 0 0 1 0 0 0 0 1 0 0 0 0.06 0"/>
<feBlend mode="normal" in2="shape" result="effect2_innerShadow_11_3"/>
<feGaussianBlur stdDeviation="0.15" result="effect3_foregroundBlur_11_3"/>
</filter>
<linearGradient id="paint0_linear_11_3" x1="173.443" y1="27.9998" x2="66.5566" y2="212" gradientUnits="userSpaceOnUse">
<stop stop-color="#65B1F4"/>
<stop offset="0.5" stop-color="#526AFC"/>
<stop offset="1" stop-color="#4D4DF5"/>
</linearGradient>
</defs>
</svg>
