<svg id="css-logo" viewBox="0 0 255 255" xmlns="http://www.w3.org/2000/svg">
    <polygon id="polygon2989" points="240 0 219.502 229.473 127.362 255 35.476 229.509 15 0"
        style="fill:#264de4"></polygon>
    <polygon id="polygon2991" points="201.953 214.861 219.47 18.765 127.5 18.765 127.5 235.488"
        style="fill:#2965f1"></polygon>
    <polygon id="polygon2993" points="61.941 103.887 64.466 132.035 127.5 132.035 127.5 103.887"
        style="fill:#ebebeb"></polygon>
    <polygon id="polygon2995"
        points="127.5 46.914 127.403 46.914 56.869 46.914 59.429 75.063 127.5 75.063"
        style="fill:#ebebeb"></polygon>
    <polygon id="polygon2997"
        points="127.5 206.278 127.5 176.991 127.377 177.024 96.005 168.559 94 146.11 78.757 146.11 65.725 146.11 69.67 190.307 127.37 206.314"
        style="fill:#ebebeb"></polygon>
    <polygon id="polygon3005"
        points="162.088 132.035 158.818 168.541 127.403 177.015 127.403 206.3 185.147 190.307 185.572 185.551 192.19 111.446 192.878 103.887 197.963 46.914 127.403 46.914 127.403 75.063 167.093 75.063 164.53 103.887 127.403 103.887 127.403 132.035"
        style="fill:#ffffff"></polygon>
</svg>
