<svg id="html-logo" viewBox="0 0 255 255" xmlns="http://www.w3.org/2000/svg">
<path fill="#e44d26" d="M 35.466 229.587 L 15 0 L 240 0 L 219.534 229.464 L 127.313 255">
</path>
<path fill="#f16529"
d="M 127.501 235.475 L 127.501 18.843 L 219.473 18.843 L 201.921 214.711">
</path>
<path fill="#ebebeb"
d="M 56.799 46.921 L 127.501 46.921 L 127.501 75.062 L 87.684 75.062 L 90.29 103.884 L 127.501 103.884 L 127.501 131.963 L 64.49 131.963 M 65.73 146.095 L 94.011 146.095 L 95.995 168.595 L 127.501 177.024 L 127.501 206.405 L 69.7 190.288">
</path>
<path fill="#fff"
d="M 197.953 46.921 L 127.376 46.921 L 127.376 75.062 L 195.347 75.062 M 192.805 103.884 L 127.376 103.884 L 127.376 132.024 L 162.107 132.024 L 158.819 168.595 L 127.376 177.024 L 127.376 206.28 L 185.052 190.288">
</path>
</svg>
