<svg id="php-logo" viewBox="0 0 255 255" xmlns="http://www.w3.org/2000/svg">
	<defs>
	<clipPath id="clipPath20" clipPathUnits="userSpaceOnUse">
	    <path id="path18"
	        d="m 366.672,2445.95 c 0,0 127.719,141.37 216.176,199.96 28.183,18.65 237.797,128.95 372.402,-250.67 73.64,-207.85 74.87,-362.68 -92.516,-428.71 -100.234,-39.55 -64.41,-113.59 -64.41,-113.59">
	    </path>
	</clipPath>
	<linearGradient id="linearGradient26" spreadMethod="pad"
	    gradientTransform="matrix(870.829,-648.982,-648.982,-870.829,1062.31,2048.82)"
	    gradientUnits="userSpaceOnUse" y2="0" x2="1" y1="0" x1="0">
	    <stop id="stop22" offset="0" style="stop-opacity:1;stop-color:#8c9bd6"></stop>
	    <stop id="stop24" offset="1" style="stop-opacity:1;stop-color:#505e9b"></stop>
	</linearGradient>
	<clipPath id="clipPath38" clipPathUnits="userSpaceOnUse">
	    <path id="path36"
	        d="m 2084.18,2364.09 268.24,0 c 22.51,0 40.74,-14.93 40.74,-33.29 l 0,0 c 0,-18.37 -18.23,-33.27 -40.74,-33.27 l -210.54,0 z">
	    </path>
	</clipPath>
	<linearGradient id="linearGradient44" spreadMethod="pad"
	    gradientTransform="matrix(878.069,-654.378,-654.378,-878.069,1631.85,2795.24)"
	    gradientUnits="userSpaceOnUse" y2="0" x2="1" y1="0" x1="0">
	    <stop id="stop40" offset="0" style="stop-opacity:1;stop-color:#808fd0"></stop>
	    <stop id="stop42" offset="1" style="stop-opacity:1;stop-color:#505e9b"></stop>
	</linearGradient>
	<clipPath id="clipPath68" clipPathUnits="userSpaceOnUse">
	    <path id="path66"
	        d="m 1150.12,1702.08 0,-535.82 c 0,-132.12 -131.1,-179.471 -292.784,-179.471 l 0,0 c -161.711,0 -292.746,47.351 -292.746,179.471 l 0,542.14">
	    </path>
	</clipPath>
	<linearGradient id="linearGradient74" spreadMethod="pad"
	    gradientTransform="matrix(867.01,-646.136,-646.136,-867.01,668.276,1535.96)"
	    gradientUnits="userSpaceOnUse" y2="0" x2="1" y1="0" x1="0">
	    <stop id="stop70" offset="0" style="stop-opacity:1;stop-color:#8c9bd6"></stop>
	    <stop id="stop72" offset="1" style="stop-opacity:1;stop-color:#505e9b"></stop>
	</linearGradient>
	<clipPath id="clipPath98" clipPathUnits="userSpaceOnUse">
	    <path id="path96"
	        d="m 2045.81,1695.54 0,-535.81 c 0,-132.14 -131.09,-179.468 -292.78,-179.468 l 0,0 c -161.7,0 -292.79,47.328 -292.79,179.468 l 0,542.13">
	    </path>
	</clipPath>
	<linearGradient id="linearGradient104" spreadMethod="pad"
	    gradientTransform="matrix(867.001,-646.13,-646.13,-867.001,994.502,1953.79)"
	    gradientUnits="userSpaceOnUse" y2="0" x2="1" y1="0" x1="0">
	    <stop id="stop100" offset="0" style="stop-opacity:1;stop-color:#8c9bd6"></stop>
	    <stop id="stop102" offset="1" style="stop-opacity:1;stop-color:#505e9b"></stop>
	</linearGradient>
	<clipPath id="clipPath128" clipPathUnits="userSpaceOnUse">
	    <path id="path126"
	        d="m 903.801,2433.88 c 114.029,-185.4 101.879,-342.02 -50.055,-424.12 -90.965,-49.18 -40.887,-114.04 -40.887,-114.04">
	    </path>
	</clipPath>
	<linearGradient id="linearGradient134" spreadMethod="pad"
	    gradientTransform="matrix(841.599,-627.199,-627.199,-841.599,1039.39,2029.86)"
	    gradientUnits="userSpaceOnUse" y2="0" x2="1" y1="0" x1="0">
	    <stop id="stop130" offset="0" style="stop-opacity:1;stop-color:#808fd0"></stop>
	    <stop id="stop132" offset="1" style="stop-opacity:1;stop-color:#505e9b"></stop>
	</linearGradient>
	<clipPath id="clipPath146" clipPathUnits="userSpaceOnUse">
	    <path id="path144"
	        d="m 1569.91,2565.32 c 0,0 -189.32,2.23 -881.043,-20.69 C -2.81641,2521.72 22.7109,2273.69 21.6367,1917.49 l 0,-856.76 c 0,-72.468 62.793,-101.699 140.2733,-101.699 77.469,0 140.356,29.231 140.356,101.699 0,0 17.863,244.81 33.285,393.73 34.5,541.01 687.579,-88.96 1162.329,-59.56 431.41,26.74 771.15,175.65 771.15,529.54 0,353.97 -222.65,640.88 -699.12,640.88 z">
	    </path>
	</clipPath>
	<linearGradient id="linearGradient152" spreadMethod="pad"
	    gradientTransform="matrix(875.231,-652.263,-652.263,-875.231,894.629,1822.24)"
	    gradientUnits="userSpaceOnUse" y2="0" x2="1" y1="0" x1="0">
	    <stop id="stop148" offset="0" style="stop-opacity:1;stop-color:#8c9bd6"></stop>
	    <stop id="stop150" offset="1" style="stop-opacity:1;stop-color:#505e9b"></stop>
	</linearGradient>
	<clipPath id="clipPath164" clipPathUnits="userSpaceOnUse">
	    <path id="path162"
	        d="m 40.5078,1894 c 0.7383,-80.46 -10.5781,-783.24 33.8086,-825.44 -13.9453,31.12 16.5625,711.97 16.1719,754.76 l -0.4102,25.04 c 0,11.92 0,23.67 0,35.37 -17.1093,6.32 -33.7148,14.09 -49.7461,22.98 z">
	    </path>
	</clipPath>
	<linearGradient id="linearGradient170" spreadMethod="pad"
	    gradientTransform="matrix(579.497,-844.587,-844.587,-579.497,-304.165,2038.99)"
	    gradientUnits="userSpaceOnUse" y2="0" x2="1" y1="0" x1="0">
	    <stop id="stop166" offset="0" style="stop-opacity:1;stop-color:#fafafd"></stop>
	    <stop id="stop168" offset="1" style="stop-opacity:1;stop-color:#8892d2"></stop>
	</linearGradient>
	<clipPath id="clipPath180" clipPathUnits="userSpaceOnUse">
	    <path id="path178"
	        d="m 1569.65,2541.75 c 0,0 -185.21,2.18 -862.005,-20.24 C 30.8789,2499.09 41.2656,2249.73 41.2656,1914.49 l 0.1406,-12.4 c 15.6641,-8.89 31.8985,-16.66 48.5586,-22.99 0.1563,317.27 13.6482,550.06 666.4062,571.68 676.769,22.42 862.039,20.24 862.039,20.24 258.82,0 437,-87.38 547.94,-223.71 -102.14,176.42 -295.52,294.44 -596.7,294.44 z">
	    </path>
	</clipPath>
	<linearGradient id="linearGradient186" spreadMethod="pad"
	    gradientTransform="matrix(675.246,-984.137,-984.137,-675.246,649.966,2737.72)"
	    gradientUnits="userSpaceOnUse" y2="0" x2="1" y1="0" x1="0">
	    <stop id="stop182" offset="0" style="stop-opacity:1;stop-color:#fafafd"></stop>
	    <stop id="stop184" offset="1" style="stop-opacity:1;stop-color:#8892d2"></stop>
	</linearGradient>
	<clipPath id="clipPath196" clipPathUnits="userSpaceOnUse">
	    <path id="path194"
	        d="m 1333.93,1456.26 0,-381.58 c 0,-132.121 -131.13,-179.571 -292.82,-179.571 l 0,0 c -161.696,0 -292.755,47.45 -292.755,179.571 l 0,580.79">
	    </path>
	</clipPath>
	<linearGradient id="linearGradient202" spreadMethod="pad"
	    gradientTransform="matrix(866.559,-645.8,-645.8,-866.559,654.526,1514.45)"
	    gradientUnits="userSpaceOnUse" y2="0" x2="1" y1="0" x1="0">
	    <stop id="stop198" offset="0" style="stop-opacity:1;stop-color:#8c9bd6"></stop>
	    <stop id="stop200" offset="1" style="stop-opacity:1;stop-color:#505e9b"></stop>
	</linearGradient>
	<clipPath id="clipPath232" clipPathUnits="userSpaceOnUse">
	    <path id="path230"
	        d="m 2229.92,1718.48 0,-628.88 c 0,-132.112 -131.12,-179.53 -292.81,-179.53 l 0,0 c -161.71,0 -292.75,47.418 -292.75,179.53 l 0,361.33">
	    </path>
	</clipPath>
	<linearGradient id="linearGradient238" spreadMethod="pad"
	    gradientTransform="matrix(869.571,-648.045,-648.045,-869.571,1046.59,2028.58)"
	    gradientUnits="userSpaceOnUse" y2="0" x2="1" y1="0" x1="0">
	    <stop id="stop234" offset="0" style="stop-opacity:1;stop-color:#8c9bd6"></stop>
	    <stop id="stop236" offset="1" style="stop-opacity:1;stop-color:#505e9b"></stop>
	</linearGradient>
	<clipPath id="clipPath298" clipPathUnits="userSpaceOnUse">
	    <path id="path296"
	        d="m 571.879,2500.55 c 0,0 171.527,117.93 279.867,158.35 34.531,12.89 283.674,78.71 324.064,-351.49 22.08,-235.55 -17.68,-398.24 -210.83,-427.71 -115.589,-17.66 -97.691,-103.81 -97.691,-103.81">
	    </path>
	</clipPath>
	<linearGradient id="linearGradient304" spreadMethod="pad"
	    gradientTransform="matrix(868.236,-647.05,-647.05,-868.236,1098.5,2096.02)"
	    gradientUnits="userSpaceOnUse" y2="0" x2="1" y1="0" x1="0">
	    <stop id="stop300" offset="0" style="stop-opacity:1;stop-color:#8c9bd6"></stop>
	    <stop id="stop302" offset="1" style="stop-opacity:1;stop-color:#505e9b"></stop>
	</linearGradient>
	<clipPath id="clipPath316" clipPathUnits="userSpaceOnUse">
	    <path id="path314"
	        d="m 747.344,2531.75 c 194.211,121.45 302.026,59.35 302.026,59.35 -84.444,77.21 -179.436,51.62 -200.444,43.74 -107.969,-40.42 -316.485,-189.8 -316.485,-189.8 0,0 -28.195,-50.01 27.989,-39.16 0,0 122.211,85.38 186.914,125.87 z">
	    </path>
	</clipPath>
	<linearGradient id="linearGradient322" spreadMethod="pad"
	    gradientTransform="matrix(690.106,-1005.8,-1005.8,-690.106,633.604,2727.32)"
	    gradientUnits="userSpaceOnUse" y2="0" x2="1" y1="0" x1="0">
	    <stop id="stop318" offset="0" style="stop-opacity:1;stop-color:#fafafd"></stop>
	    <stop id="stop320" offset="1" style="stop-opacity:1;stop-color:#8892d2"></stop>
	</linearGradient>
	</defs>
	<g transform="matrix(0.096772, 0, 0, -0.096063, 0, 298.984192)" id="g14">
	<g id="g16" clip-path="url(#clipPath20)">
	    <path
	        d="m 366.672,2445.95 c 0,0 127.719,141.37 216.176,199.96 28.183,18.65 237.797,128.95 372.402,-250.67 73.64,-207.85 74.87,-362.68 -92.516,-428.71 -100.234,-39.55 -64.41,-113.59 -64.41,-113.59"
	        style="fill:url(#linearGradient26);fill-opacity:1;fill-rule:nonzero;stroke:none"
	        id="path28"></path>
	</g>
	</g>
	<path
	d="M 55.219 43.156 C 46.536 48.864 34.413 62.14 33.902 62.7 C 33.144 63.535 33.233 64.805 34.106 65.531 C 34.976 66.256 36.3 66.172 37.059 65.338 C 37.182 65.202 49.348 51.879 57.59 46.462 C 57.836 46.297 63.849 42.436 71.172 44.76 C 78.873 47.204 85.544 55.774 90.459 69.539 C 98.283 91.455 95.963 103.026 82.698 108.217 C 78.871 109.719 76.351 111.89 75.212 114.683 C 73.707 118.366 75.292 121.692 75.36 121.835 C 75.844 122.832 77.073 123.256 78.117 122.799 C 79.164 122.346 79.629 121.162 79.162 120.156 C 79.154 120.137 78.259 118.164 79.132 116.097 C 79.848 114.391 81.581 112.985 84.283 111.93 C 104.294 104.091 100.211 84.464 94.42 68.239 C 88.988 53.029 81.61 43.851 72.491 40.954 C 63.376 38.059 56.026 42.629 55.22 43.156"
	style="fill:#363254;fill-opacity:1;fill-rule:nonzero;stroke:none" id="path30"></path>
	<g transform="matrix(0.096772, 0, 0, -0.096063, 0, 298.984192)" id="g32">
	<g id="g34" clip-path="url(#clipPath38)">
	    <path
	        d="m 2084.18,2364.09 268.24,0 c 22.51,0 40.74,-14.93 40.74,-33.29 l 0,0 c 0,-18.37 -18.23,-33.27 -40.74,-33.27 l -210.54,0 -57.7,66.56"
	        style="fill:url(#linearGradient44);fill-opacity:1;fill-rule:nonzero;stroke:none"
	        id="path46"></path>
	</g>
	</g>
	<path
	d="M 227.648 73.887 C 228.738 73.887 229.496 74.517 229.496 75.081 C 229.496 75.643 228.738 76.274 227.648 76.274 C 227.648 76.274 210.029 76.274 208.252 76.274 C 207.836 75.799 207.211 75.078 206.17 73.887 C 212.305 73.887 227.648 73.887 227.648 73.887 Z M 197.213 69.878 L 206.296 80.282 L 227.648 80.282 C 230.979 80.282 233.685 77.949 233.685 75.081 C 233.685 72.211 230.979 69.878 227.648 69.878 L 197.213 69.878"
	style="fill:#363254;fill-opacity:1;fill-rule:nonzero;stroke:none" id="path48"></path>
	<path
	d="M 235.682 64.449 C 239.251 62.762 243.421 63.175 245.007 65.371 C 246.586 67.572 244.975 70.716 241.407 72.41 C 237.845 74.097 228.506 76.136 226.923 73.932 C 225.338 71.736 232.119 66.136 235.682 64.449"
	style="fill:#8b9dd7;fill-opacity:1;fill-rule:nonzero;stroke:none" id="path50"></path>
	<path
	d="M 236.607 66.245 C 239.376 64.937 242.415 65.306 243.282 66.51 C 243.523 66.847 243.579 67.234 243.453 67.697 C 243.23 68.533 242.329 69.737 240.476 70.616 C 237.035 72.244 230.923 73.198 229.036 72.738 C 229.732 71.184 233.555 67.693 236.607 66.245 Z M 234.755 62.653 C 231.77 64.064 225.701 68.555 224.741 72.107 L 225.201 75.07 C 228.069 79.068 239.637 75.485 242.334 74.206 C 245.021 72.934 246.905 70.928 247.507 68.703 C 247.938 67.117 247.662 65.531 246.73 64.235 C 244.544 61.203 239.287 60.51 234.755 62.653"
	style="fill:#363254;fill-opacity:1;fill-rule:nonzero;stroke:none" id="path52"></path>
	<path
	d="M 242.022 77.423 C 245.849 78.691 247.98 81.628 246.799 83.986 C 245.608 86.346 241.548 87.221 237.725 85.95 C 233.907 84.684 226.228 79.914 227.414 77.561 C 228.604 75.195 238.205 76.155 242.022 77.423"
	style="fill:#8b9dd7;fill-opacity:1;fill-rule:nonzero;stroke:none" id="path54"></path>
	<path
	d="M 242.71 75.532 L 242.707 75.532 L 242.71 75.532 Z M 241.336 79.316 L 241.338 79.316 C 243.394 80.001 244.519 81.138 244.884 81.979 C 245.162 82.621 244.974 82.997 244.91 83.12 C 244.281 84.37 241.364 85.038 238.411 84.056 C 235.037 82.939 230.5 79.791 229.645 78.342 C 231.229 77.816 237.644 78.09 241.336 79.316 Z M 225.528 76.69 L 225.531 79.598 C 227.004 82.997 233.806 86.773 237.04 87.847 C 241.907 89.465 247.024 88.152 248.683 84.862 C 249.036 84.152 249.213 83.39 249.213 82.618 C 249.213 81.889 249.058 81.153 248.746 80.433 C 247.809 78.276 245.608 76.493 242.707 75.532 C 239.812 74.568 227.716 72.341 225.529 76.69"
	style="fill:#363254;fill-opacity:1;fill-rule:nonzero;stroke:none" id="path56"></path>
	<path
	d="M 242.582 70.159 C 248.259 70.122 252.884 72.153 252.905 74.699 C 252.934 77.245 248.357 79.337 242.677 79.374 C 237.008 79.412 224.16 77.439 224.134 74.895 C 224.108 72.346 236.912 70.201 242.582 70.159"
	style="fill:#8b9dd7;fill-opacity:1;fill-rule:nonzero;stroke:none" id="path58"></path>
	<path
	d="M 250.812 74.718 C 250.812 74.815 250.721 75.004 250.467 75.253 C 249.441 76.255 246.557 77.343 242.664 77.368 C 237.795 77.401 230.094 76.09 227.131 74.873 C 230.073 73.611 237.736 72.195 242.598 72.163 L 242.596 72.163 C 247.973 72.128 250.807 74.045 250.812 74.718 Z M 242.569 68.153 L 242.566 68.153 C 238.442 68.182 226.194 69.624 223.051 72.681 L 222.042 74.916 C 222.1 80.808 242.486 81.38 242.692 81.38 C 247.261 81.348 251.385 80.079 253.454 78.064 C 254.48 77.066 255.013 75.897 255 74.679 C 254.968 70.855 249.739 68.108 242.569 68.153"
	style="fill:#363254;fill-opacity:1;fill-rule:nonzero;stroke:none" id="path60"></path>
	<g transform="matrix(0.096772, 0, 0, -0.096063, 0, 298.984192)" id="g62">
	<g id="g64" clip-path="url(#clipPath68)">
	    <path
	        d="m 1150.12,1702.08 0,-535.82 c 0,-132.12 -131.1,-179.471 -292.784,-179.471 l 0,0 c -161.711,0 -292.746,47.351 -292.746,179.471 l 0,542.14"
	        style="fill:url(#linearGradient74);fill-opacity:1;fill-rule:nonzero;stroke:none"
	        id="path76"></path>
	</g>
	</g>
	<path
	d="M 52.544 134.87 L 52.544 186.95 C 52.544 199.362 63.345 206.195 82.966 206.195 C 102.587 206.195 113.393 199.362 113.393 186.95 L 113.393 135.478 C 113.393 134.37 112.455 133.472 111.299 133.472 C 110.143 133.472 109.206 134.37 109.206 135.478 L 109.206 186.95 C 109.206 199.544 94.939 202.185 82.966 202.185 C 70.998 202.185 56.73 199.544 56.73 186.95 L 56.73 134.87 C 56.73 133.765 55.792 132.867 54.636 132.867 C 53.481 132.867 52.544 133.765 52.544 134.87"
	style="fill:#363254;fill-opacity:1;fill-rule:nonzero;stroke:none" id="path78"></path>
	<path
	d="M 67.053 186.889 C 67.053 192.023 64.055 196.196 60.355 196.196 C 56.654 196.196 53.654 192.023 53.654 186.889 C 53.654 181.743 56.654 170.131 60.355 170.131 C 64.055 170.131 67.053 181.743 67.053 186.889"
	style="fill:#8b9dd7;fill-opacity:1;fill-rule:nonzero;stroke:none" id="path80"></path>
	<path
	d="M 54.353 186.889 C 54.353 181.295 57.531 170.797 60.355 170.797 C 63.177 170.797 66.356 181.295 66.356 186.889 C 66.356 191.654 63.665 195.531 60.355 195.531 C 57.046 195.531 54.353 191.654 54.353 186.889 Z M 52.956 186.889 C 52.956 192.39 56.274 196.868 60.355 196.868 C 64.433 196.868 67.75 192.39 67.75 186.889 C 67.75 181.863 64.803 169.459 60.355 169.459 C 55.906 169.459 52.956 181.863 52.956 186.889"
	style="fill:#363254;fill-opacity:1;fill-rule:nonzero;stroke:none" id="path82"></path>
	<path
	d="M 55.459 187.816 C 55.459 182.869 59.085 173.965 61.732 173.965 C 61.985 173.965 62.234 174.09 62.473 174.282 C 61.812 172.714 61.053 171.677 60.251 171.677 C 57.602 171.677 55.459 182.872 55.459 187.816"
	style="fill:#a6bde6;fill-opacity:1;fill-rule:nonzero;stroke:none" id="path84"></path>
	<path
	d="M 70.213 191.834 C 70.213 195.802 67.829 199.018 64.886 199.018 C 61.941 199.018 59.553 195.802 59.553 191.834 C 59.553 187.855 61.941 178.894 64.886 178.894 C 67.829 178.894 70.213 187.855 70.213 191.834"
	style="fill:#8b9dd7;fill-opacity:1;fill-rule:nonzero;stroke:none" id="path86"></path>
	<path
	d="M 60.251 191.834 C 60.251 187.675 62.755 179.564 64.886 179.564 C 67.018 179.564 69.514 187.675 69.514 191.834 C 69.514 195.426 67.437 198.35 64.886 198.35 C 62.328 198.35 60.251 195.426 60.251 191.834 Z M 58.855 191.834 C 58.855 196.162 61.561 199.687 64.886 199.687 C 68.206 199.687 70.91 196.162 70.91 191.834 C 70.91 188.447 68.773 178.226 64.886 178.226 C 60.993 178.226 58.855 188.447 58.855 191.834"
	style="fill:#363254;fill-opacity:1;fill-rule:nonzero;stroke:none" id="path88"></path>
	<path
	d="M 61.794 189.471 C 61.526 186.643 64.025 181.951 65.971 181.607 C 66.153 181.583 66.341 181.627 66.527 181.704 C 65.957 180.893 65.311 180.245 64.758 180.498 C 62.831 181.412 61.526 186.653 61.794 189.471"
	style="fill:#a6bde6;fill-opacity:1;fill-rule:nonzero;stroke:none" id="path90"></path>
	<g transform="matrix(0.096772, 0, 0, -0.096063, 0, 298.984192)" id="g92">
	<g id="g94" clip-path="url(#clipPath98)">
	    <path
	        d="m 2045.81,1695.54 0,-535.81 c 0,-132.14 -131.09,-179.468 -292.78,-179.468 l 0,0 c -161.7,0 -292.79,47.328 -292.79,179.468 l 0,542.13"
	        style="fill:url(#linearGradient104);fill-opacity:1;fill-rule:nonzero;stroke:none"
	        id="path106"></path>
	</g>
	</g>
	<path
	d="M 139.217 135.498 L 139.217 187.577 C 139.217 199.987 150.023 206.822 169.645 206.822 C 178.476 206.822 185.557 205.438 190.695 202.71 C 196.828 199.452 200.071 194.22 200.071 187.577 L 200.071 136.105 C 200.071 134.998 199.133 134.102 197.977 134.102 C 196.822 134.102 195.886 134.998 195.886 136.105 L 195.886 187.577 C 195.886 192.821 193.522 196.623 188.662 199.207 C 184.216 201.565 177.642 202.814 169.645 202.814 C 157.674 202.814 143.406 200.167 143.406 187.577 L 143.406 135.498 C 143.406 134.39 142.466 133.493 141.311 133.493 C 140.155 133.493 139.217 134.39 139.217 135.498"
	style="fill:#363254;fill-opacity:1;fill-rule:nonzero;stroke:none" id="path108"></path>
	<path
	d="M 153.731 187.514 C 153.731 192.649 150.733 196.831 147.034 196.831 C 143.327 196.831 140.331 192.649 140.331 187.514 C 140.331 182.373 143.327 170.758 147.034 170.758 C 150.733 170.758 153.731 182.373 153.731 187.514"
	style="fill:#7483ca;fill-opacity:1;fill-rule:nonzero;stroke:none" id="path110"></path>
	<path
	d="M 141.027 187.514 C 141.027 184.89 141.821 180.737 142.956 177.419 C 144.22 173.723 145.783 171.426 147.034 171.426 C 149.855 171.426 153.033 181.922 153.033 187.514 C 153.033 192.283 150.342 196.16 147.034 196.16 C 143.721 196.16 141.027 192.283 141.027 187.514 Z M 141.63 177.003 C 140.453 180.438 139.631 184.764 139.631 187.514 C 139.631 193.019 142.952 197.497 147.034 197.497 C 151.111 197.497 154.428 193.019 154.428 187.514 C 154.428 182.49 151.482 170.091 147.034 170.091 C 144.519 170.091 142.708 173.847 141.63 177.003"
	style="fill:#363254;fill-opacity:1;fill-rule:nonzero;stroke:none" id="path112"></path>
	<path
	d="M 142.14 188.449 C 142.14 183.501 145.763 174.59 148.41 174.59 C 148.664 174.59 148.912 174.72 149.152 174.909 C 148.488 173.344 147.732 172.304 146.93 172.304 C 144.28 172.304 142.14 183.501 142.14 188.449"
	style="fill:#839ad6;fill-opacity:1;fill-rule:nonzero;stroke:none" id="path114"></path>
	<path
	d="M 156.892 192.459 C 156.892 196.432 154.509 199.642 151.564 199.642 C 148.62 199.642 146.234 196.432 146.234 192.459 C 146.234 188.481 148.62 179.522 151.564 179.522 C 154.509 179.522 156.892 188.481 156.892 192.459"
	style="fill:#7483ca;fill-opacity:1;fill-rule:nonzero;stroke:none" id="path116"></path>
	<path
	d="M 146.933 192.459 C 146.933 188.301 149.432 180.191 151.564 180.191 C 153.693 180.191 156.193 188.301 156.193 192.459 C 156.193 196.052 154.115 198.977 151.564 198.977 C 149.009 198.977 146.933 196.052 146.933 192.459 Z M 145.538 192.459 C 145.538 196.793 148.24 200.312 151.564 200.312 C 154.887 200.312 157.59 196.793 157.59 192.459 C 157.59 189.072 155.451 178.853 151.564 178.853 C 147.673 178.853 145.538 189.072 145.538 192.459"
	style="fill:#363254;fill-opacity:1;fill-rule:nonzero;stroke:none" id="path118"></path>
	<path
	d="M 148.475 190.098 C 148.203 187.274 150.703 182.582 152.649 182.237 C 152.833 182.212 153.021 182.254 153.205 182.332 C 152.635 181.519 151.989 180.871 151.436 181.126 C 149.508 182.04 148.203 187.28 148.475 190.098"
	style="fill:#839ad6;fill-opacity:1;fill-rule:nonzero;stroke:none" id="path120"></path>
	<g transform="matrix(0.096772, 0, 0, -0.096063, 0, 298.984192)" id="g122">
	<g id="g124" clip-path="url(#clipPath128)">
	    <path
	        d="m 903.801,2433.88 c 114.029,-185.4 101.879,-342.02 -50.055,-424.12 -90.965,-49.18 -40.887,-114.04 -40.887,-114.04"
	        style="fill:url(#linearGradient134);fill-opacity:1;fill-rule:nonzero;stroke:none"
	        id="path136"></path>
	</g>
	</g>
	<path
	d="M 86.395 63.453 C 85.399 64.019 85.069 65.25 85.662 66.201 C 91.805 76.11 94.003 85.085 92.022 92.147 C 90.615 97.17 87.103 101.214 81.598 104.172 C 78.117 106.038 76.042 108.392 75.425 111.164 C 74.585 114.931 76.886 117.947 76.985 118.073 C 77.671 118.955 78.967 119.134 79.896 118.486 C 80.823 117.836 81.025 116.584 80.353 115.691 C 80.343 115.674 79.067 113.939 79.527 111.963 C 79.896 110.382 81.281 108.938 83.641 107.67 C 90.173 104.163 94.355 99.294 96.067 93.186 C 98.345 85.055 95.996 75.016 89.262 64.155 C 88.674 63.202 87.386 62.89 86.395 63.453"
	style="fill:#080604;fill-opacity:1;fill-rule:nonzero;stroke:none" id="path138"></path>
	<g transform="matrix(0.096772, 0, 0, -0.096063, 0, 298.984192)" id="g140">
	<g id="g142" clip-path="url(#clipPath146)">
	    <path
	        d="m 1569.91,2565.32 c 0,0 -189.32,2.23 -881.043,-20.69 C -2.81641,2521.72 22.7109,2273.69 21.6367,1917.49 l 0,-856.76 c 0,-72.468 62.793,-101.699 140.2733,-101.699 77.469,0 140.356,29.231 140.356,101.699 0,0 17.863,244.81 33.285,393.73 34.5,541.01 687.579,-88.96 1162.329,-59.56 431.41,26.74 771.15,175.65 771.15,529.54 0,353.97 -222.65,640.88 -699.12,640.88"
	        style="fill:url(#linearGradient152);fill-opacity:1;fill-rule:nonzero;stroke:none"
	        id="path154"></path>
	</g>
	</g>
	<path
	d="M 4.187 197.088 L 4.187 114.784 C 4.187 114.792 4.192 111.158 4.192 111.158 C 4.204 79.507 4.213 58.597 66.733 56.541 C 132.805 54.371 151.714 54.553 151.898 54.554 L 151.924 54.554 C 172.974 54.554 190.129 60.577 201.53 71.97 C 211.969 82.397 217.486 96.97 217.486 114.116 C 217.486 150.811 177.969 160.945 144.819 162.986 C 127.372 164.056 106.793 155.493 88.636 147.936 C 68.282 139.467 50.706 132.153 39.884 138.502 C 34.168 141.855 31.061 148.606 30.384 159.141 C 28.913 173.233 27.179 196.708 27.163 196.947 C 27.158 203.842 19.959 204.853 15.669 204.853 C 11.382 204.853 4.187 203.842 4.187 197.088 Z M 66.593 52.537 C 0.026 54.725 0.015 78.394 0.005 111.155 L 0 114.779 L 0 197.088 C 0 204.46 5.858 208.865 15.669 208.865 C 25.488 208.865 31.345 204.46 31.345 197.088 C 31.357 196.991 33.083 173.573 34.556 159.462 C 35.149 150.253 37.606 144.542 42.07 141.921 C 51.038 136.663 68.485 143.925 86.967 151.614 C 105.559 159.351 126.63 168.121 145.088 166.986 C 194.474 163.946 221.672 145.17 221.672 114.116 C 221.672 95.919 215.752 80.387 204.553 69.195 C 192.343 56.996 174.144 50.547 151.924 50.547 L 151.949 50.547 C 151.766 50.544 132.811 50.355 66.593 52.537"
	style="fill:#363254;fill-opacity:1;fill-rule:nonzero;stroke:none" id="path156"></path>
	<g transform="matrix(0.096772, 0, 0, -0.096063, 0, 298.984192)" id="g158">
	<g id="g160" clip-path="url(#clipPath164)">
	    <path
	        d="m 40.5078,1894 c 0.7383,-80.46 -10.5781,-783.24 33.8086,-825.44 -13.9453,31.12 16.5625,711.97 16.1719,754.76 l -0.4102,25.04 c 0,11.92 0,23.67 0,35.37 -17.1093,6.32 -33.7148,14.09 -49.7461,22.98 L 40.5078,1894"
	        style="fill:url(#linearGradient170);fill-opacity:1;fill-rule:nonzero;stroke:none"
	        id="path172"></path>
	</g>
	</g>
	<g transform="matrix(0.096772, 0, 0, -0.096063, 0, 298.984192)" id="g174">
	<g id="g176" clip-path="url(#clipPath180)">
	    <path
	        d="m 1569.65,2541.75 c 0,0 -185.21,2.18 -862.005,-20.24 C 30.8789,2499.09 41.2656,2249.73 41.2656,1914.49 l 0.1406,-12.4 c 15.6641,-8.89 31.8985,-16.66 48.5586,-22.99 0.1563,317.27 13.6482,550.06 666.4062,571.68 676.769,22.42 862.039,20.24 862.039,20.24 258.82,0 437,-87.38 547.94,-223.71 -102.14,176.42 -295.52,294.44 -596.7,294.44"
	        style="fill:url(#linearGradient186);fill-opacity:1;fill-rule:nonzero;stroke:none"
	        id="path188"></path>
	</g>
	</g>
	<g transform="matrix(0.096772, 0, 0, -0.096063, 0, 298.984192)" id="g190">
	<g id="g192" clip-path="url(#clipPath196)">
	    <path
	        d="m 1333.93,1456.26 0,-381.58 c 0,-132.121 -131.13,-179.571 -292.82,-179.571 l 0,0 c -161.696,0 -292.755,47.45 -292.755,179.571 l 0,580.79"
	        style="fill:url(#linearGradient202);fill-opacity:1;fill-rule:nonzero;stroke:none"
	        id="path204"></path>
	</g>
	</g>
	<path
	d="M 70.327 139.954 L 70.327 195.748 C 70.327 208.164 81.134 215 100.75 215 C 120.373 215 131.181 208.164 131.181 195.748 L 131.181 159.092 C 131.181 157.985 130.241 157.086 129.087 157.086 C 127.933 157.086 126.994 157.985 126.994 159.092 L 126.994 195.748 C 126.994 208.347 112.724 210.992 100.75 210.992 C 88.783 210.992 74.513 208.347 74.513 195.748 L 74.513 139.954 C 74.513 138.847 73.575 137.951 72.42 137.951 C 71.264 137.951 70.327 138.847 70.327 139.954"
	style="fill:#363254;fill-opacity:1;fill-rule:nonzero;stroke:none" id="path206"></path>
	<path
	d="M 90.243 199.303 C 90.243 204.077 86.242 207.95 81.302 207.95 C 76.363 207.95 72.361 204.077 72.361 199.303 C 72.361 194.523 76.363 183.733 81.302 183.733 C 86.242 183.733 90.243 194.523 90.243 199.303"
	style="fill:#8b9dd7;fill-opacity:1;fill-rule:nonzero;stroke:none" id="path208"></path>
	<path
	d="M 73.059 199.303 C 73.059 194.649 77.045 184.399 81.302 184.399 C 85.56 184.399 89.546 194.649 89.546 199.303 C 89.546 203.704 85.85 207.281 81.302 207.281 C 76.759 207.281 73.059 203.704 73.059 199.303 Z M 71.662 199.303 C 71.662 204.439 75.986 208.618 81.302 208.618 C 86.618 208.618 90.942 204.439 90.942 199.303 C 90.942 194.46 86.874 183.06 81.302 183.06 C 75.735 183.06 71.662 194.46 71.662 199.303"
	style="fill:#363254;fill-opacity:1;fill-rule:nonzero;stroke:none" id="path210"></path>
	<path
	d="M 73.887 199.874 C 73.887 195.599 78.893 187.917 82.556 187.917 C 82.905 187.917 83.244 188.027 83.582 188.194 C 82.659 186.843 81.618 185.944 80.512 185.944 C 76.847 185.944 73.887 195.604 73.887 199.874"
	style="fill:#a6bde6;fill-opacity:1;fill-rule:nonzero;stroke:none" id="path212"></path>
	<path
	d="M 97.527 199.979 C 97.527 206.276 93.383 211.4 88.271 211.4 C 83.151 211.4 79.008 206.276 79.008 199.979 C 79.008 193.673 83.151 179.434 88.271 179.434 C 93.383 179.434 97.527 193.673 97.527 199.979"
	style="fill:#8b9dd7;fill-opacity:1;fill-rule:nonzero;stroke:none" id="path214"></path>
	<path
	d="M 79.704 199.979 C 79.704 193.768 83.848 180.1 88.271 180.1 C 92.692 180.1 96.83 193.768 96.83 199.979 C 96.83 205.906 92.991 210.73 88.271 210.73 C 83.549 210.73 79.704 205.906 79.704 199.979 Z M 78.309 199.979 C 78.309 206.644 82.779 212.068 88.271 212.068 C 93.761 212.068 98.226 206.644 98.226 199.979 C 98.226 193.649 94.022 178.767 88.271 178.767 C 82.518 178.767 78.309 193.649 78.309 199.979"
	style="fill:#363254;fill-opacity:1;fill-rule:nonzero;stroke:none" id="path216"></path>
	<path
	d="M 81.504 201.121 C 81.504 195.049 86.515 184.136 90.173 184.136 C 90.522 184.136 90.865 184.293 91.198 184.527 C 90.282 182.599 89.234 181.329 88.129 181.329 C 84.464 181.329 81.504 195.057 81.504 201.121"
	style="fill:#a6bde6;fill-opacity:1;fill-rule:nonzero;stroke:none" id="path218"></path>
	<path
	d="M 102.386 203.37 C 102.386 207.829 99.403 211.442 95.723 211.442 C 92.043 211.442 89.06 207.829 89.06 203.37 C 89.06 198.89 92.043 188.815 95.723 188.815 C 99.403 188.815 102.386 198.89 102.386 203.37"
	style="fill:#8b9dd7;fill-opacity:1;fill-rule:nonzero;stroke:none" id="path220"></path>
	<path
	d="M 89.758 203.37 C 89.758 198.542 92.922 189.484 95.723 189.484 C 98.53 189.484 101.688 198.542 101.688 203.37 C 101.688 207.455 99.014 210.771 95.723 210.771 C 92.434 210.771 89.758 207.455 89.758 203.37 Z M 88.363 203.37 C 88.363 208.189 91.667 212.11 95.723 212.11 C 99.786 212.11 103.083 208.189 103.083 203.37 C 103.083 198.98 100.151 188.149 95.723 188.149 C 91.297 188.149 88.363 198.98 88.363 203.37"
	style="fill:#363254;fill-opacity:1;fill-rule:nonzero;stroke:none" id="path222"></path>
	<path
	d="M 91.863 200.708 C 91.525 197.524 94.648 192.247 97.081 191.866 C 97.31 191.829 97.543 191.883 97.779 191.971 C 97.065 191.052 96.257 190.325 95.566 190.615 C 93.155 191.642 91.525 197.535 91.863 200.708"
	style="fill:#a6bde6;fill-opacity:1;fill-rule:nonzero;stroke:none" id="path224"></path>
	<g transform="matrix(0.096772, 0, 0, -0.096063, 0, 298.984192)" id="g226">
	<g id="g228" clip-path="url(#clipPath232)">
	    <path
	        d="m 2229.92,1718.48 0,-628.88 c 0,-132.112 -131.12,-179.53 -292.81,-179.53 l 0,0 c -161.71,0 -292.75,47.418 -292.75,179.53 l 0,361.33"
	        style="fill:url(#linearGradient238);fill-opacity:1;fill-rule:nonzero;stroke:none"
	        id="path240"></path>
	</g>
	</g>
	<path
	d="M 213.698 133.902 L 213.698 194.314 C 213.698 206.913 199.428 209.556 187.458 209.556 C 175.492 209.556 161.222 206.913 161.222 194.314 L 161.222 159.603 C 161.222 158.496 160.285 157.598 159.129 157.598 C 157.973 157.598 157.035 158.496 157.035 159.603 L 157.035 194.314 C 157.035 206.728 167.839 213.567 187.458 213.567 C 207.079 213.567 217.886 206.728 217.886 194.314 L 217.886 133.902 C 217.886 132.795 216.949 131.899 215.794 131.899 C 214.637 131.899 213.698 132.795 213.698 133.902"
	style="fill:#363254;fill-opacity:1;fill-rule:nonzero;stroke:none" id="path242"></path>
	<path
	d="M 176.952 197.869 C 176.952 202.639 172.95 206.512 168.01 206.512 C 163.071 206.512 159.07 202.639 159.07 197.869 C 159.07 193.089 163.071 182.297 168.01 182.297 C 172.95 182.297 176.952 193.089 176.952 197.869"
	style="fill:#8b9dd7;fill-opacity:1;fill-rule:nonzero;stroke:none" id="path244"></path>
	<path
	d="M 159.768 197.869 C 159.768 193.212 163.752 182.967 168.01 182.967 C 172.27 182.967 176.255 193.212 176.255 197.869 C 176.255 202.266 172.555 205.846 168.01 205.846 C 163.466 205.846 159.768 202.266 159.768 197.869 Z M 158.372 197.869 C 158.372 203.004 162.694 207.182 168.01 207.182 C 173.326 207.182 177.65 203.004 177.65 197.869 C 177.65 193.025 173.581 181.628 168.01 181.628 C 162.441 181.628 158.372 193.025 158.372 197.869"
	style="fill:#363254;fill-opacity:1;fill-rule:nonzero;stroke:none" id="path246"></path>
	<path
	d="M 160.595 198.437 C 160.595 194.163 165.6 186.482 169.264 186.482 C 169.613 186.482 169.952 186.591 170.29 186.756 C 169.369 185.406 168.328 184.509 167.22 184.509 C 163.557 184.509 160.595 194.168 160.595 198.437"
	style="fill:#a6bde6;fill-opacity:1;fill-rule:nonzero;stroke:none" id="path248"></path>
	<path
	d="M 184.237 198.542 C 184.237 204.842 180.094 209.965 174.978 209.965 C 169.858 209.965 165.715 204.842 165.715 198.542 C 165.715 192.237 169.858 178 174.978 178 C 180.094 178 184.237 192.237 184.237 198.542"
	style="fill:#8b9dd7;fill-opacity:1;fill-rule:nonzero;stroke:none" id="path250"></path>
	<path
	d="M 166.412 198.542 C 166.412 192.331 170.553 178.668 174.978 178.668 C 179.401 178.668 183.538 192.331 183.538 198.542 C 183.538 204.471 179.697 209.297 174.978 209.297 C 170.253 209.297 166.412 204.471 166.412 198.542 Z M 165.017 198.542 C 165.017 205.208 169.484 210.631 174.978 210.631 C 180.468 210.631 184.934 205.208 184.934 198.542 C 184.934 192.216 180.731 177.329 174.978 177.329 C 169.221 177.329 165.017 192.216 165.017 198.542"
	style="fill:#363254;fill-opacity:1;fill-rule:nonzero;stroke:none" id="path252"></path>
	<path
	d="M 168.212 199.687 C 168.212 193.615 173.223 182.703 176.88 182.703 C 177.231 182.703 177.573 182.859 177.907 183.09 C 176.992 181.164 175.945 179.897 174.837 179.897 C 171.173 179.897 168.212 193.62 168.212 199.687"
	style="fill:#a6bde6;fill-opacity:1;fill-rule:nonzero;stroke:none" id="path254"></path>
	<path
	d="M 189.093 201.934 C 189.093 206.394 186.111 210.007 182.432 210.007 C 178.753 210.007 175.769 206.394 175.769 201.934 C 175.769 197.456 178.753 187.378 182.432 187.378 C 186.111 187.378 189.093 197.456 189.093 201.934"
	style="fill:#8b9dd7;fill-opacity:1;fill-rule:nonzero;stroke:none" id="path256"></path>
	<path
	d="M 176.466 201.934 C 176.466 197.107 179.626 188.05 182.432 188.05 C 185.236 188.05 188.397 197.107 188.397 201.934 C 188.397 206.018 185.718 209.339 182.432 209.339 C 179.144 209.339 176.466 206.018 176.466 201.934 Z M 175.07 201.934 C 175.07 206.755 178.372 210.674 182.432 210.674 C 186.491 210.674 189.79 206.755 189.79 201.934 C 189.79 197.546 186.858 186.711 182.432 186.711 C 178.004 186.711 175.07 197.546 175.07 201.934"
	style="fill:#363254;fill-opacity:1;fill-rule:nonzero;stroke:none" id="path258"></path>
	<path
	d="M 178.572 199.274 C 178.235 196.089 181.357 190.813 183.79 190.431 C 184.018 190.395 184.253 190.445 184.487 190.537 C 183.771 189.617 182.966 188.894 182.275 189.177 C 179.863 190.205 178.235 196.1 178.572 199.274"
	style="fill:#a6bde6;fill-opacity:1;fill-rule:nonzero;stroke:none" id="path260"></path>
	<path
	d="M 19.845 81.22 C 19.105 82.217 19.366 83.588 20.432 84.285 C 21.494 84.982 22.957 84.733 23.695 83.739 C 27.905 78.06 37.374 76.496 41.876 78.108 C 42.773 78.431 43.907 78.291 44.402 77.789 C 44.897 77.292 44.573 76.626 43.674 76.305 C 37.51 74.093 25.418 73.692 19.845 81.22"
	style="fill:#363254;fill-opacity:1;fill-rule:nonzero;stroke:none" id="path262"></path>
	<path
	d="M 38.091 106.18 C 34.203 106.994 30.776 104.834 30.438 101.359 C 30.102 97.877 32.984 94.398 36.873 93.578 C 40.765 92.761 44.192 94.915 44.532 98.399 C 44.865 101.878 41.985 105.356 38.091 106.18 Z M 46.131 97.934 C 45.741 93.878 41.693 91.382 37.08 92.347 C 32.472 93.314 29.049 97.376 29.436 101.426 C 29.824 105.474 33.873 107.976 38.482 107.017 C 43.094 106.046 46.519 101.985 46.131 97.934"
	style="fill:#363254;fill-opacity:1;fill-rule:nonzero;stroke:none" id="path264"></path>
	<path
	d="M 44.285 98.678 C 44.581 101.738 42.06 104.803 38.656 105.517 C 35.237 106.24 32.24 104.335 31.935 101.276 C 31.643 98.216 34.163 95.155 37.569 94.439 C 40.984 93.719 43.99 95.615 44.285 98.678"
	style="fill:#fcfcfc;fill-opacity:1;fill-rule:nonzero;stroke:none" id="path266"></path>
	<path
	d="M 43.787 98.709 C 42.865 96.378 40.417 95.026 38.34 95.675 C 37.227 96.018 36.465 96.871 36.109 97.939 L 39.011 99.364 L 36.345 101.275 C 37.333 103.474 39.671 104.736 41.687 104.109 C 43.773 103.452 44.708 101.04 43.787 98.709"
	style="fill:#363254;fill-opacity:1;fill-rule:nonzero;stroke:none" id="path268"></path>
	<path
	d="M 41.65 97.71 C 42.167 97.636 42.775 98.256 42.996 99.119 C 43.219 99.97 42.979 100.726 42.451 100.807 C 41.929 100.885 41.322 100.26 41.098 99.4 C 40.881 98.551 41.126 97.796 41.65 97.71"
	style="fill:#ffffff;fill-opacity:1;fill-rule:nonzero;stroke:none" id="path270"></path>
	<path
	d="M 33.207 94.196 C 29.568 96.983 28.417 101.033 30.875 103.329 C 30.663 103.237 31.127 103.828 30.93 103.718 C 27.058 101.587 26.412 95.261 29.976 91.538 C 33.035 88.339 42.216 85.967 42.148 87.2 C 41.769 88.616 39.081 90.412 35.744 92.365 C 34.67 92.97 33.895 93.67 33.207 94.196"
	style="fill:#363254;fill-opacity:1;fill-rule:nonzero;stroke:none" id="path272"></path>
	<path
	d="M 93.001 133.49 C 92.814 134.439 93.461 135.219 94.437 135.219 L 100.043 135.219 C 101.021 135.219 101.97 134.439 102.159 133.49 L 103.652 125.851 C 103.84 124.9 104.787 124.122 105.765 124.122 L 111.833 124.122 C 115.293 124.122 118.141 123.761 120.373 123.039 C 122.61 122.318 124.639 121.107 126.47 119.407 C 128.002 118.008 129.246 116.464 130.194 114.773 C 131.143 113.087 131.82 111.224 132.217 109.184 C 133.186 104.239 132.233 100.56 130.028 97.622 C 127.259 93.942 120.194 93.748 120.194 93.748 C 119.228 93.604 117.641 93.481 116.665 93.481 L 102.607 93.481 C 101.631 93.481 100.682 94.26 100.493 95.213 L 93.001 133.49 Z M 114.969 100.067 C 118.45 100.067 120.766 100.706 121.926 101.981 C 123.083 103.255 123.362 105.446 122.756 108.546 C 122.121 111.776 120.901 114.084 119.096 115.465 C 117.29 116.845 112.614 117.344 112.614 117.344 C 111.641 117.45 110.048 117.536 109.074 117.536 L 107.055 117.536 C 106.08 117.536 105.43 116.756 105.618 115.807 L 108.36 101.798 C 108.546 100.848 109.498 100.067 110.472 100.067 L 114.969 100.067"
	style="fill:#363254;fill-opacity:1;fill-rule:nonzero;stroke:none" id="path274"></path>
	<path
	d="M 93.001 133.49 C 92.814 134.439 93.461 135.219 94.437 135.219 L 100.043 135.219 C 101.021 135.219 101.97 134.439 102.159 133.49 L 103.652 125.851 C 103.84 124.9 104.787 124.122 105.765 124.122 L 111.833 124.122 C 115.293 124.122 118.141 123.761 120.373 123.039 C 122.61 122.318 124.639 121.107 126.47 119.407 C 128.002 118.008 129.246 116.464 130.194 114.773 C 131.143 113.087 131.82 111.224 132.217 109.184 C 133.186 104.239 132.233 100.56 130.028 97.622 C 127.259 93.942 120.194 93.748 120.194 93.748 C 119.228 93.604 117.641 93.481 116.665 93.481 L 102.607 93.481 C 101.631 93.481 100.682 94.26 100.493 95.213 L 93.001 133.49 Z M 114.969 100.067 C 118.45 100.067 120.766 100.706 121.926 101.981 C 123.083 103.255 123.362 105.446 122.756 108.546 C 122.121 111.776 120.901 114.084 119.096 115.465 C 117.29 116.845 112.614 117.344 112.614 117.344 C 111.641 117.45 110.048 117.536 109.074 117.536 L 107.055 117.536 C 106.08 117.536 105.43 116.756 105.618 115.807 L 108.36 101.798 C 108.546 100.848 109.498 100.067 110.472 100.067 L 114.969 100.067 Z"
	style="fill:none;stroke:#ffffff;stroke-width:5.33333302;stroke-linecap:butt;stroke-linejoin:miter;stroke-miterlimit:4;stroke-dasharray:none;stroke-opacity:1"
	id="path276"></path>
	<path
	d="M 141.049 84.115 C 141.235 83.166 142.184 82.388 143.16 82.388 L 148.696 82.388 C 149.674 82.388 150.319 83.166 150.131 84.115 L 148.637 91.754 C 148.451 92.706 149.101 93.481 150.074 93.481 L 154.616 93.481 C 155.591 93.481 157.185 93.564 158.154 93.663 C 158.154 93.663 164.778 93.74 166.927 96.128 C 168.678 98.072 169.439 100.75 168.665 104.7 L 165.205 122.393 C 165.02 123.345 164.068 124.122 163.091 124.122 L 157.413 124.122 C 156.436 124.122 155.789 123.345 155.975 122.393 L 158.915 107.384 C 159.101 106.434 159.31 104.865 159.382 103.897 C 159.382 103.897 159.513 102.121 158.797 101.359 C 158.085 100.593 156.564 100.214 154.239 100.214 L 148.754 100.214 C 147.777 100.214 146.83 100.99 146.641 101.94 L 142.641 122.393 C 142.455 123.345 141.505 124.122 140.529 124.122 L 134.991 124.122 C 134.015 124.122 133.369 123.345 133.555 122.393 L 141.049 84.115"
	style="fill:#363254;fill-opacity:1;fill-rule:nonzero;stroke:none" id="path278"></path>
	<path
	d="M 141.049 84.115 C 141.235 83.166 142.184 82.388 143.16 82.388 L 148.696 82.388 C 149.674 82.388 150.319 83.166 150.131 84.115 L 148.637 91.754 C 148.451 92.706 149.101 93.481 150.074 93.481 L 154.616 93.481 C 155.591 93.481 157.185 93.564 158.154 93.663 C 158.154 93.663 164.778 93.74 166.927 96.128 C 168.678 98.072 169.439 100.75 168.665 104.7 L 165.205 122.393 C 165.02 123.345 164.068 124.122 163.091 124.122 L 157.413 124.122 C 156.436 124.122 155.789 123.345 155.975 122.393 L 158.915 107.384 C 159.101 106.434 159.31 104.865 159.382 103.897 C 159.382 103.897 159.513 102.121 158.797 101.359 C 158.085 100.593 156.564 100.214 154.239 100.214 L 148.754 100.214 C 147.777 100.214 146.83 100.99 146.641 101.94 L 142.641 122.393 C 142.455 123.345 141.505 124.122 140.529 124.122 L 134.991 124.122 C 134.015 124.122 133.369 123.345 133.555 122.393 L 141.049 84.115 Z"
	style="fill:none;stroke:#ffffff;stroke-width:5.33333302;stroke-linecap:butt;stroke-linejoin:miter;stroke-miterlimit:4;stroke-dasharray:none;stroke-opacity:1"
	id="path280"></path>
	<path
	d="M 169.132 133.49 C 168.944 134.439 169.592 135.219 170.569 135.219 L 176.175 135.219 C 177.148 135.219 178.102 134.439 178.287 133.49 L 179.781 125.851 C 179.968 124.9 180.919 124.122 181.893 124.122 L 187.963 124.122 C 191.423 124.122 194.268 123.761 196.506 123.039 C 198.737 122.318 200.769 121.107 202.598 119.407 C 204.134 118.008 205.372 116.464 206.324 114.773 C 207.273 113.087 207.948 111.224 208.348 109.184 C 209.316 104.239 208.44 100.503 206.156 97.622 C 203.324 94.044 196.321 93.748 196.321 93.748 C 195.356 93.604 193.768 93.481 192.792 93.481 L 178.734 93.481 C 177.76 93.481 176.807 94.26 176.623 95.213 L 169.132 133.49 Z M 191.102 100.067 C 194.579 100.067 196.896 100.706 198.059 101.981 C 199.213 103.255 199.49 105.446 198.885 108.546 C 198.249 111.776 197.035 114.084 195.226 115.465 C 193.417 116.845 188.741 117.344 188.741 117.344 C 187.773 117.45 186.181 117.536 185.203 117.536 L 183.182 117.536 C 182.205 117.536 181.562 116.756 181.747 115.807 L 184.487 101.798 C 184.675 100.848 185.625 100.067 186.601 100.067 L 191.102 100.067"
	style="fill:#363254;fill-opacity:1;fill-rule:nonzero;stroke:none" id="path282"></path>
	<path
	d="M 169.132 133.49 C 168.944 134.439 169.592 135.219 170.569 135.219 L 176.175 135.219 C 177.148 135.219 178.102 134.439 178.287 133.49 L 179.781 125.851 C 179.968 124.9 180.919 124.122 181.893 124.122 L 187.963 124.122 C 191.423 124.122 194.268 123.761 196.506 123.039 C 198.737 122.318 200.769 121.107 202.598 119.407 C 204.134 118.008 205.372 116.464 206.324 114.773 C 207.273 113.087 207.948 111.224 208.348 109.184 C 209.316 104.239 208.44 100.503 206.156 97.622 C 203.324 94.044 196.321 93.748 196.321 93.748 C 195.356 93.604 193.768 93.481 192.792 93.481 L 178.734 93.481 C 177.76 93.481 176.807 94.26 176.623 95.213 L 169.132 133.49 Z M 191.102 100.067 C 194.579 100.067 196.896 100.706 198.059 101.981 C 199.213 103.255 199.49 105.446 198.885 108.546 C 198.249 111.776 197.035 114.084 195.226 115.465 C 193.417 116.845 188.741 117.344 188.741 117.344 C 187.773 117.45 186.181 117.536 185.203 117.536 L 183.182 117.536 C 182.205 117.536 181.562 116.756 181.747 115.807 L 184.487 101.798 C 184.675 100.848 185.625 100.067 186.601 100.067 L 191.102 100.067 Z"
	style="fill:none;stroke:#ffffff;stroke-width:5.33333302;stroke-linecap:butt;stroke-linejoin:miter;stroke-miterlimit:4;stroke-dasharray:none;stroke-opacity:1"
	id="path284"></path>
	<path
	d="M 93.001 133.49 C 92.814 134.439 93.461 135.219 94.437 135.219 L 100.043 135.219 C 101.021 135.219 101.97 134.439 102.159 133.49 L 103.652 125.851 C 103.84 124.9 104.787 124.122 105.765 124.122 L 111.833 124.122 C 115.293 124.122 118.141 123.761 120.373 123.039 C 122.61 122.318 124.639 121.107 126.47 119.407 C 128.002 118.008 129.246 116.464 130.194 114.773 C 131.143 113.087 131.82 111.224 132.217 109.184 C 133.186 104.239 132.233 100.56 130.028 97.622 C 127.259 93.942 120.194 93.748 120.194 93.748 C 119.228 93.604 117.641 93.481 116.665 93.481 L 102.607 93.481 C 101.631 93.481 100.682 94.26 100.493 95.213 L 93.001 133.49 Z M 114.969 100.067 C 118.45 100.067 120.766 100.706 121.926 101.981 C 123.083 103.255 123.362 105.446 122.756 108.546 C 122.121 111.776 120.901 114.084 119.096 115.465 C 117.29 116.845 112.614 117.344 112.614 117.344 C 111.641 117.45 110.048 117.536 109.074 117.536 L 107.055 117.536 C 106.08 117.536 105.43 116.756 105.618 115.807 L 108.36 101.798 C 108.546 100.848 109.498 100.067 110.472 100.067 L 114.969 100.067"
	style="fill:#363254;fill-opacity:1;fill-rule:nonzero;stroke:none" id="path286"></path>
	<path
	d="M 141.049 84.115 C 141.235 83.166 142.184 82.388 143.16 82.388 L 148.696 82.388 C 149.674 82.388 150.319 83.166 150.131 84.115 L 148.637 91.754 C 148.451 92.706 149.101 93.481 150.074 93.481 L 154.616 93.481 C 155.591 93.481 157.185 93.564 158.154 93.663 C 158.154 93.663 164.778 93.74 166.927 96.128 C 168.678 98.072 169.439 100.75 168.665 104.7 L 165.205 122.393 C 165.02 123.345 164.068 124.122 163.091 124.122 L 157.413 124.122 C 156.436 124.122 155.789 123.345 155.975 122.393 L 158.915 107.384 C 159.101 106.434 159.31 104.865 159.382 103.897 C 159.382 103.897 159.513 102.121 158.797 101.359 C 158.085 100.593 156.564 100.214 154.239 100.214 L 148.754 100.214 C 147.777 100.214 146.83 100.99 146.641 101.94 L 142.641 122.393 C 142.455 123.345 141.505 124.122 140.529 124.122 L 134.991 124.122 C 134.015 124.122 133.369 123.345 133.555 122.393 L 141.049 84.115"
	style="fill:#363254;fill-opacity:1;fill-rule:nonzero;stroke:none" id="path288"></path>
	<path
	d="M 169.132 133.49 C 168.944 134.439 169.592 135.219 170.569 135.219 L 176.175 135.219 C 177.148 135.219 178.102 134.439 178.287 133.49 L 179.781 125.851 C 179.968 124.9 180.919 124.122 181.893 124.122 L 187.963 124.122 C 191.423 124.122 194.268 123.761 196.506 123.039 C 198.737 122.318 200.769 121.107 202.598 119.407 C 204.134 118.008 205.372 116.464 206.324 114.773 C 207.273 113.087 207.948 111.224 208.348 109.184 C 209.316 104.239 208.44 100.503 206.156 97.622 C 203.324 94.044 196.321 93.748 196.321 93.748 C 195.356 93.604 193.768 93.481 192.792 93.481 L 178.734 93.481 C 177.76 93.481 176.807 94.26 176.623 95.213 L 169.132 133.49 Z M 191.102 100.067 C 194.579 100.067 196.896 100.706 198.059 101.981 C 199.213 103.255 199.49 105.446 198.885 108.546 C 198.249 111.776 197.035 114.084 195.226 115.465 C 193.417 116.845 188.741 117.344 188.741 117.344 C 187.773 117.45 186.181 117.536 185.203 117.536 L 183.182 117.536 C 182.205 117.536 181.562 116.756 181.747 115.807 L 184.487 101.798 C 184.675 100.848 185.625 100.067 186.601 100.067 L 191.102 100.067"
	style="fill:#363254;fill-opacity:1;fill-rule:nonzero;stroke:none" id="path290"></path>
	<g transform="matrix(0.096772, 0, 0, -0.096063, 0, 298.984192)" id="g292">
	<g id="g294" clip-path="url(#clipPath298)">
	    <path
	        d="m 571.879,2500.55 c 0,0 171.527,117.93 279.867,158.35 34.531,12.89 283.674,78.71 324.064,-351.49 22.08,-235.55 -17.68,-398.24 -210.83,-427.71 -115.589,-17.66 -97.691,-103.81 -97.691,-103.81"
	        style="fill:url(#linearGradient304);fill-opacity:1;fill-rule:nonzero;stroke:none"
	        id="path306"></path>
	</g>
	</g>
	<path
	d="M 81.668 41.692 C 71.061 45.623 54.814 56.672 54.126 57.141 C 53.186 57.783 52.966 59.035 53.638 59.936 C 54.308 60.838 55.617 61.047 56.557 60.404 C 56.721 60.296 73.064 49.178 83.177 45.43 C 83.493 45.315 90.936 42.641 98.079 46.888 C 105.517 51.311 110.225 61.898 111.704 77.51 C 114.058 102.458 108.481 114.098 93.057 116.436 C 88.684 117.098 85.501 118.763 83.593 121.392 C 81.087 124.835 81.842 128.622 81.878 128.782 C 82.105 129.859 83.194 130.555 84.323 130.348 C 85.452 130.141 86.193 129.092 85.986 128.01 C 85.981 127.99 85.564 125.658 87.059 123.64 C 88.298 121.97 90.535 120.877 93.711 120.393 C 116.643 116.92 117.602 95.457 115.875 77.146 C 114.25 59.991 109.003 48.664 100.29 43.484 C 91.542 38.282 82.655 41.328 81.668 41.692"
	style="fill:#363254;fill-opacity:1;fill-rule:nonzero;stroke:none" id="path308"></path>
	<g transform="matrix(0.096772, 0, 0, -0.096063, 0, 298.984192)" id="g310">
	<g id="g312" clip-path="url(#clipPath316)">
	    <path
	        d="m 747.344,2531.75 c 194.211,121.45 302.026,59.35 302.026,59.35 -84.444,77.21 -179.436,51.62 -200.444,43.74 -107.969,-40.42 -316.485,-189.8 -316.485,-189.8 0,0 -28.195,-50.01 27.989,-39.16 0,0 122.211,85.38 186.914,125.87"
	        style="fill:url(#linearGradient322);fill-opacity:1;fill-rule:nonzero;stroke:none"
	        id="path324"></path>
	</g>
	</g>
	<path
	d="M 65.54 110.832 C 65.377 120.303 62.218 128.929 57.29 133.328 C 55.054 135.328 52.561 136.317 50.072 136.196 C 49.305 136.154 48.65 136.72 48.606 137.457 C 48.569 138.197 49.16 138.823 49.93 138.861 C 53.191 139.025 56.393 137.788 59.196 135.283 C 64.657 130.404 68.157 121.05 68.33 110.871 C 68.346 110.137 67.732 109.527 66.961 109.515 C 66.188 109.505 65.554 110.093 65.54 110.832"
	style="fill:#363254;fill-opacity:1;fill-rule:nonzero;stroke:none" id="path326"></path>
	<path
	d="M 71.586 104.067 C 70.534 106.46 68.698 107.985 66.541 108.24 C 64.439 108.486 62.303 107.51 60.826 105.625 C 60.366 105.037 59.488 104.916 58.872 105.359 C 58.256 105.802 58.13 106.639 58.594 107.228 C 60.679 109.89 63.779 111.258 66.884 110.894 C 70.06 110.513 72.709 108.403 74.16 105.101 C 74.458 104.42 74.121 103.643 73.414 103.354 C 72.701 103.068 71.887 103.389 71.586 104.067"
	style="fill:#363254;fill-opacity:1;fill-rule:nonzero;stroke:none" id="path328"></path>
	</svg>
