<svg id="javascript-logo" viewBox="0 0 255 255" xmlns="http://www.w3.org/2000/svg">
  <path d="M 35.466 229.587 L 15 0 L 240 0 L 219.534 229.464 L 127.313 255" style="fill: rgb(228, 161, 38);"></path>
  <path d="M 127.501 235.475 L 127.501 18.843 L 219.473 18.843 L 201.921 214.711" style="fill: rgb(240, 190, 37);"></path>
  <path fill="#ebebeb" d="M 80.375 29.2 L 127.475 29.2 L 127.475 59.4 L 101.375 59.4 L 93.975 103.9 L 127.501 103.884 L 127.501 131.963 L 64.49 131.963 M 65.73 146.095 L 94.011 146.095 L 95.995 168.595 L 127.501 177.024 L 127.501 206.405 L 69.7 190.288"></path>
  <path fill="#fff" d="M 187.275 29.2 L 127.375 29.2 L 127.375 59.4 L 159.375 59.4 L 162.075 89.7 L 192.775 89.7 L 187.275 29.2 M 192.805 103.884 L 127.376 103.884 L 127.376 132.024 L 162.107 132.024 L 158.819 168.595 L 127.376 177.024 L 127.376 206.28 L 185.052 190.288"></path>
</svg>
