<svg id="python-logo" viewBox="0 0 255 255" xmlns="http://www.w3.org/2000/svg">
    <defs>
        <linearGradient id="vlpb" x1="26.65" x2="135.7" y1="20.6" y2="114.4"
            gradientTransform="matrix(1.276344, 0, 0, 1.288824, -32.618584, -26.543472)"
            gradientUnits="userSpaceOnUse">
            <stop style="stop-color:#5a9fd4" offset="0"></stop>
            <stop style="stop-color:#306998" offset="1"></stop>
        </linearGradient>
        <linearGradient id="vlpc" x1="151" x2="112" y1="192.4" y2="137.3"
            gradientTransform="matrix(1.276344, 0, 0, 1.288824, -32.618584, -26.543472)"
            gradientUnits="userSpaceOnUse">
            <stop style="stop-color:#ffd43b" offset="0"></stop>
            <stop style="stop-color:#ffe873" offset="1"></stop>
        </linearGradient>
    </defs>
    <path
        d="M 126.011 0.011 C 115.61 0.06 105.678 0.947 96.945 2.494 C 71.191 7.043 66.516 16.562 66.516 34.124 L 66.516 57.314 L 127.35 57.314 L 127.35 65.042 L 66.516 65.042 L 43.69 65.042 C 26.009 65.042 10.516 75.671 5.683 95.879 C 0.097 119.046 -0.151 133.523 5.683 157.711 C 10.008 175.722 20.337 188.547 38.017 188.547 L 58.936 188.547 L 58.936 160.751 C 58.936 140.67 76.31 122.949 96.942 122.949 L 157.708 122.949 C 174.623 122.949 188.136 109.021 188.136 92.044 L 188.136 34.115 C 188.136 17.628 174.226 5.253 157.708 2.485 C 147.256 0.745 136.412 -0.045 126.009 0.002 L 126.011 0.011 Z M 93.11 18.661 C 99.395 18.661 104.525 23.877 104.525 30.29 C 104.525 36.679 99.393 41.848 93.11 41.848 C 86.804 41.848 81.694 36.682 81.694 30.29 C 81.694 23.877 86.804 18.661 93.11 18.661 Z"
        style="fill:url(#vlpb)"></path>
    <path
        d="M 195.717 65.024 L 195.717 92.049 C 195.717 112.994 177.959 130.623 157.71 130.623 L 96.945 130.623 C 80.299 130.623 66.516 144.868 66.516 161.527 L 66.516 219.456 C 66.516 235.943 80.855 245.641 96.945 250.361 C 116.202 256.024 134.679 257.048 157.71 250.361 C 173.026 245.927 188.138 237.001 188.138 219.456 L 188.138 196.266 L 127.373 196.266 L 127.373 188.538 L 188.138 188.538 L 218.566 188.538 C 236.246 188.538 242.845 176.206 248.994 157.702 C 255.345 138.644 255.075 120.308 248.994 95.87 C 244.624 78.269 236.278 65.033 218.566 65.033 L 195.739 65.033 L 195.717 65.024 Z M 161.545 211.741 C 167.85 211.741 172.96 216.908 172.96 223.3 C 172.96 229.712 167.85 234.929 161.545 234.929 C 155.259 234.929 150.129 229.712 150.129 223.3 C 150.129 216.91 155.262 211.741 161.545 211.741 Z"
        style="fill:url(#vlpc)"></path>
</svg>
