<svg id="git-logo" viewBox="0 0 255 255" xmlns="http://www.w3.org/2000/svg">
    <path fill="#f05133"
        d="M 250.192 116.138 L 138.85 4.809 C 132.443 -1.603 122.044 -1.603 115.63 4.809 L 92.511 27.93 L 121.837 57.256 C 128.654 54.954 136.468 56.497 141.9 61.93 C 147.36 67.397 148.893 75.278 146.533 82.118 L 174.798 110.383 C 181.636 108.027 189.525 109.549 194.986 115.019 C 202.619 122.65 202.619 135.017 194.986 142.65 C 187.351 150.286 174.985 150.286 167.345 142.65 C 161.605 136.906 160.186 128.472 163.093 121.4 L 136.733 95.04 L 136.731 164.406 C 138.592 165.327 140.348 166.557 141.899 168.101 C 149.531 175.731 149.531 188.095 141.899 195.739 C 134.265 203.369 121.894 203.369 114.268 195.739 C 106.635 188.096 106.635 175.732 114.268 168.101 C 116.154 166.218 118.337 164.793 120.666 163.837 L 120.666 93.827 C 118.336 92.876 116.156 91.461 114.266 89.563 C 108.485 83.786 107.093 75.301 110.058 68.201 L 81.148 39.287 L 4.81 115.623 C -1.604 122.04 -1.604 132.439 4.81 138.852 L 116.146 250.181 C 122.556 256.593 132.951 256.593 139.37 250.181 L 250.191 139.378 C 256.603 132.963 256.603 122.56 250.191 116.147">
    </path>
</svg>
