<svg id="flutter-logo" viewBox="0 0 255 255" xmlns="http://www.w3.org/2000/svg">
    <defs></defs>
    <path
        d="M 151.706 0.087 L 230.75 0 L 98.135 132.496 L 63.574 166.851 L 24.25 127.494 L 151.706 0.087 Z M 150.97 118.39 C 151.996 117.036 153.884 117.703 155.316 117.529 L 230.682 117.548 L 161.994 186.142 L 122.468 146.872 L 150.97 118.39 Z"
        fill="#44d1fd"></path>
    <path fill="#1fbcfd"
        d="M 83.067 186.21 L 122.468 146.872 L 161.994 186.142 L 162.159 186.316 L 122.477 225.615 L 83.067 186.21 Z">
    </path>
    <path fill="#08589c"
        d="M 122.477 225.615 L 162.159 186.316 L 230.711 254.911 C 204.889 254.969 179.076 254.891 153.264 254.949 C 151.793 255.278 150.883 253.933 149.944 253.101 L 122.477 225.615 Z">
    </path>
</svg>
