<?xml version="1.0" encoding="utf-8"?>
<svg viewBox="0 0 128 128" xmlns="http://www.w3.org/2000/svg">
  <defs>
    <linearGradient id="paint0_linear_619_507" x1="96.0931" y1="-0.46487" x2="9.09226" y2="51.8596" gradientUnits="userSpaceOnUse" gradientTransform="matrix(0.39, 0, 0, 0.39, 44.499403, 30.013121)">
      <stop stop-color="#C800FF"/>
      <stop offset="1" stop-color="#4000FF"/>
    </linearGradient>
    <linearGradient id="paint0_linear_619_508" x1="2.96683" y1="-0.47103" x2="96.9242" y2="40.9555" gradientUnits="userSpaceOnUse" gradientTransform="matrix(0.389996, 0, 0, 0.389996, 44.500662, 56.039543)">
      <stop stop-color="#4000FF"/>
      <stop offset="1" stop-color="#00AAFF"/>
    </linearGradient>
    <linearGradient id="paint0_linear_619_509" x1="2.97562" y1="75.4649" x2="89.7432" y2="22.9078" gradientUnits="userSpaceOnUse" gradientTransform="matrix(0.389998, 0, 0, 0.389998, 44.500563, 68.736149)">
      <stop stop-color="#0015FF"/>
      <stop offset="1" stop-color="#00AAFF"/>
    </linearGradient>
    <radialGradient gradientUnits="userSpaceOnUse" cx="260.389" cy="13.017" r="64" id="gradient-0" gradientTransform="matrix(0.001948, -0.177545, 0.533197, 0.005852, 56.721685, 152.498779)">
      <stop offset="0" style="stop-color: rgb(0, 18, 27);"/>
      <stop offset="1" style=""/>
    </radialGradient>
  </defs>
  <rect width="128" height="128" style="paint-order: fill; fill: url(#gradient-0);" rx="25.949" ry="25.949"/>
  <path d="M 53.979 44.635 C 53.979 44.635 53.945 44.175 54.648 43.985 C 58.431 42.954 78.84 37.493 79.513 37.062 C 80.009 36.748 81.376 36.238 82.171 34.918 C 82.843 33.799 83.437 32.423 83.417 31.39 C 83.405 30.778 82.9 30.035 82.126 30.014 C 80.494 29.967 62.056 35.308 48.385 39.117 C 44.485 40.204 44.466 43.56 44.508 44.639 C 44.549 45.717 44.567 49.074 48.467 50.161 C 62.139 53.969 80.576 59.309 82.209 59.263 C 82.981 59.243 83.488 58.498 83.5 57.886 C 83.519 56.854 82.926 55.478 82.252 54.359 C 81.459 53.039 80.089 52.529 79.595 52.213 C 78.908 51.776 57.863 46.129 54.639 45.285 C 53.98 45.113 53.979 44.635 53.979 44.635 Z" fill="url(#paint0_linear_619_507)" style=""/>
  <path d="M 60.455 66.62 C 54.51 64.947 48.745 63.3 48.367 63.115 C 47.832 62.859 46.543 62.349 45.748 61.01 C 45.074 59.875 44.481 58.483 44.501 57.434 C 44.514 56.819 45.02 56.063 45.792 56.043 C 46.762 56.013 53.67 57.915 61.984 60.268 C 62.993 60.556 64.023 60.848 65.065 61.145 C 65.886 61.375 66.716 61.608 67.545 61.841 C 73.49 63.514 79.257 65.163 79.634 65.344 C 80.17 65.602 81.459 66.112 82.253 67.449 C 82.927 68.585 83.52 69.978 83.5 71.027 C 83.488 71.644 82.982 72.398 82.209 72.421 C 81.239 72.448 74.331 70.548 66.016 68.191 C 65.008 67.905 63.981 67.614 62.937 67.317 C 62.114 67.086 61.285 66.853 60.455 66.62 Z" fill="url(#paint0_linear_619_508)"/>
  <path d="M 74.023 83.366 C 74.023 83.366 74.057 83.825 73.355 84.017 C 69.57 85.046 49.161 90.508 48.49 90.937 C 47.992 91.253 46.625 91.762 45.831 93.082 C 45.157 94.203 44.563 95.578 44.585 96.611 C 44.598 97.221 45.104 97.966 45.876 97.987 C 47.508 98.033 65.945 92.692 79.617 88.885 C 83.517 87.799 83.535 84.442 83.493 83.362 C 83.452 82.283 83.435 78.927 79.534 77.841 C 65.862 74.032 47.425 68.692 45.793 68.738 C 45.021 68.76 44.515 69.504 44.502 70.114 C 44.481 71.148 45.075 72.523 45.748 73.642 C 46.543 74.964 47.913 75.473 48.407 75.787 C 49.093 76.225 70.138 81.873 73.362 82.716 C 74.022 82.888 74.023 83.366 74.023 83.366 Z" fill="url(#paint0_linear_619_509)"/>
</svg>